<?xml version="1.0" encoding="UTF-8" standalone="no"?>
<!-- Created with Inkscape (http://www.inkscape.org/) -->

<svg
   width="594mm"
   height="420mm"
   viewBox="0 0 594 420"
   version="1.1"
   id="svg5"
   inkscape:version="1.2.2 (b0a8486541, 2022-12-01)"
   sodipodi:docname="connectors-spacers.svg"
   xmlns:inkscape="http://www.inkscape.org/namespaces/inkscape"
   xmlns:sodipodi="http://sodipodi.sourceforge.net/DTD/sodipodi-0.dtd"
   xmlns="http://www.w3.org/2000/svg"
   xmlns:svg="http://www.w3.org/2000/svg">
  <sodipodi:namedview
     id="namedview7"
     pagecolor="#ffffff"
     bordercolor="#666666"
     borderopacity="1.0"
     inkscape:pageshadow="2"
     inkscape:pageopacity="0.0"
     inkscape:pagecheckerboard="0"
     inkscape:document-units="mm"
     showgrid="false"
     inkscape:zoom="2.7261492"
     inkscape:cx="341.50735"
     inkscape:cy="857.43656"
     inkscape:window-width="1882"
     inkscape:window-height="1016"
     inkscape:window-x="0"
     inkscape:window-y="0"
     inkscape:window-maximized="1"
     inkscape:current-layer="layer1"
     inkscape:showpageshadow="2"
     inkscape:deskcolor="#d1d1d1" />
  <defs
     id="defs2">
    <rect
       x="45.230719"
       y="1356.6273"
       width="298.14892"
       height="152.48577"
       id="rect47914" />
  </defs>
  <g
     inkscape:label="Layer 1"
     inkscape:groupmode="layer"
     id="layer1">
    <path
       id="path12841"
       style="fill:#800000;stroke-width:0"
       d="M 540.08834,50.04443 A 20.044096,20.044096 0 0 0 520.04391,30 20.044096,20.044096 0 0 0 500,50.04443 v 200.44064 a 20.044096,20.044096 0 0 0 20.04391,20.04443 20.044096,20.044096 0 0 0 20.04443,-20.04443 z m -17.03748,0 v 40.08782 a 3.0066146,3.0066146 0 0 1 -3.00695,3.00694 3.0066146,3.0066146 0 0 1 -3.00643,-3.00694 V 50.04443 a 3.0066146,3.0066146 0 0 1 3.00643,-3.00695 3.0066146,3.0066146 0 0 1 3.00695,3.00695 z m 0,120.26449 a 3.0066146,3.0066146 0 0 1 -3.00695,3.00643 3.0066146,3.0066146 0 0 1 -3.00643,-3.00643 3.0066146,3.0066146 0 0 1 3.00643,-3.00643 3.0066146,3.0066146 0 0 1 3.00695,3.00643 z m 0,80.17615 a 3.0066146,3.0066146 0 0 1 -3.00695,3.00695 3.0066146,3.0066146 0 0 1 -3.00643,-3.00695 3.0066146,3.0066146 0 0 1 3.00643,-3.00643 3.0066146,3.0066146 0 0 1 3.00695,3.00643 z" />
    <text
       xml:space="preserve"
       style="font-style:normal;font-variant:normal;font-weight:normal;font-stretch:normal;font-size:4.93889px;line-height:1.25;font-family:sans-serif;-inkscape-font-specification:sans-serif;letter-spacing:0px;fill:#000000;fill-opacity:1;stroke:none;stroke-width:0.264583"
       x="19.767456"
       y="393.21634"
       id="text7311"><tspan
         sodipodi:role="line"
         style="font-style:normal;font-variant:normal;font-weight:bold;font-stretch:normal;font-size:4.23333px;font-family:sans-serif;-inkscape-font-specification:'sans-serif Bold';stroke-width:0.264583"
         x="19.767456"
         y="393.21634"
         id="tspan24361">Drum Carder</tspan><tspan
         sodipodi:role="line"
         style="font-style:normal;font-variant:normal;font-weight:normal;font-stretch:normal;font-size:3.175px;font-family:sans-serif;-inkscape-font-specification:sans-serif;stroke-width:0.264583"
         x="19.767456"
         y="399.38995"
         id="tspan42755">Connectors and spacers - 6mm plywood (birch or poplar) - 20230602</tspan></text>
    <text
       xml:space="preserve"
       transform="scale(0.26458333)"
       id="text47912"
       style="line-height:1.25;font-family:sans-serif;font-size:12px;white-space:pre;shape-inside:url(#rect47914)" />
    <path
       id="rect5221"
       style="fill:#800000;stroke-width:0"
       d="M 56.00015,30 V 42.000301 H 50 v 19.999812 h 6.00015 V 73.999898 H 380.00001 V 62.000113 h 6.00014 V 42.000301 h -6.00014 V 30 Z" />
    <path
       id="rect5353"
       style="fill:#800000;stroke-width:0"
       d="M 19.999813,30 V 73.999898 H 40.000142 V 30 Z m 7.00009,12.000301 h 6.00015 v 19.999812 h -6.00015 z" />
    <path
       id="path8478"
       style="fill:#800000;stroke-width:0"
       d="m 400,30 v 43.999898 h 20.00033 V 30 Z m 7.00009,12.000301 h 6.00015 v 19.999812 h -6.00015 z" />
    <text
       xml:space="preserve"
       style="font-size:3.175px;line-height:1.25;font-family:sans-serif;stroke-width:0.264583"
       x="19.688391"
       y="22.412256"
       id="text36926"><tspan
         sodipodi:role="line"
         id="tspan36924"
         style="stroke-width:0.264583"
         x="19.688391"
         y="22.412256">0mm spacer</tspan></text>
    <text
       xml:space="preserve"
       style="font-size:3.175px;line-height:1.25;font-family:sans-serif;stroke-width:0.264583"
       x="19.767456"
       y="92.356445"
       id="text36926-3"><tspan
         sodipodi:role="line"
         id="tspan36924-1"
         style="stroke-width:0.264583"
         x="19.767456"
         y="92.356445">20mm spacer</tspan></text>
    <path
       id="path4082"
       style="fill:#800000;stroke-width:0"
       d="m 36.999997,130 v 6.00015 H 29.999906 20 v 43.9999 h 9.999906 7.000091 v 5.99963 h 6.000149 v -5.99963 h 7.000089 9.999906 v -43.9999 H 50.000235 43.000146 V 130 Z m 0,18.00045 h 6.000149 v 19.99981 h -6.000149 z" />
    <path
       id="path4300"
       style="fill:#800000;stroke-width:0"
       d="M 861.73242 491.33789 L 861.73242 514.01562 L 287.24414 514.01562 L 287.24414 559.37109 L 264.56641 559.37109 L 264.56641 634.96094 L 287.24414 634.96094 L 287.24414 680.31445 L 861.73242 680.31445 L 861.73242 702.99219 L 937.32227 702.99219 L 937.32227 680.31445 L 1511.8105 680.31445 L 1511.8105 634.96094 L 1534.4883 634.96094 L 1534.4883 559.37109 L 1511.8105 559.37109 L 1511.8105 514.01562 L 937.32227 514.01562 L 937.32227 491.33789 L 861.73242 491.33789 z "
       transform="scale(0.26458333)" />
    <path
       id="rect4324"
       style="fill:#800000;stroke-width:0"
       d="m 64,100.0001 v 19.99981 H 411.99994 V 100.0001 Z m 6.000149,7.00009 h 6.000152 v 5.99963 h -6.000152 z m 158.000171,0 h 19.99982 v 5.99963 h -19.99982 z m 171.99984,0 h 6.00014 v 5.99963 h -6.00014 z" />
    <path
       id="path4659"
       style="fill:#800000;stroke-width:0"
       d="m 64,190 v 19.99981 H 411.99994 V 190 Z m 6.000149,7.00009 h 6.000152 v 5.99964 h -6.000152 z m 158.000181,0 h 19.99981 v 5.99964 h -19.99981 z m 171.99983,0 h 6.00015 v 5.99964 h -6.00015 z" />
    <path
       id="path4661"
       style="fill:#800000;stroke-width:0"
       d="m 437,130 v 6.00015 H 429.99991 420 v 43.9999 H 429.99991 437 v 5.99963 h 6.00015 v -5.99963 h 7.00008 9.99991 v -43.9999 h -9.99991 -7.00008 V 130 Z m 0,18.00045 h 6.00015 v 19.99981 H 437 Z" />
    <text
       xml:space="preserve"
       style="font-size:3.175px;line-height:1.25;font-family:sans-serif;stroke-width:0.264583"
       x="499.82172"
       y="22.356445"
       id="text7029"><tspan
         sodipodi:role="line"
         id="tspan7027"
         style="stroke-width:0.264583"
         x="499.82172"
         y="22.356445">Connector</tspan></text>
    <path
       id="path405"
       style="fill:#800000;stroke-width:0"
       d="m 74,231.99979 v 36.00039 h 347.99994 v -36.00039 z m 5.999634,8.00003 h 6.00015 v 4.60024 h 5.17e-4 v 10.79985 h -5.17e-4 v 4.60024 h -6.00015 z m 330.000006,0 h 6.00015 v 4.60024 h 5.2e-4 v 10.79985 h -5.2e-4 v 4.60024 h -6.00015 z m -171.99983,7.00009 h 19.99981 v 6.00015 h -19.99981 z" />
    <path
       id="path471"
       style="fill:#800000;stroke-width:0"
       d="m 238.00017,275 v 6.00015 H 86.000149 v 12.0003 H 80 v 19.99981 h 6.000149 v 11.99979 H 238.00017 v 6.00015 h 19.99981 v -6.00015 h 152.00001 v -11.99979 h 6.00017 v -19.99981 h -6.00017 v -12.0003 H 257.99998 V 275 Z" />
    <path
       id="path473"
       style="fill:#800000;stroke-width:0"
       d="m 74,338 v 36.00039 H 422 V 338 Z m 5.999635,8.00003 h 6.000151 v 4.60024 h 5.17e-4 v 10.79985 h -5.17e-4 v 4.60024 h -6.000151 z m 330.000065,0 h 6.00015 v 4.60024 h 5.2e-4 v 10.79985 h -5.2e-4 v 4.60024 h -6.00015 z m -171.99986,7.00009 h 19.99981 v 6.00015 h -19.99981 z" />
    <path
       id="path475"
       style="fill:#800000;stroke-width:0"
       d="m 27.999841,275 v 6.00015 H 23.999569 9.9999064 v 43.9999 h 13.9996626 4.000272 v 5.99963 h 5.800163 8.400004 5.800163 v -5.99963 h 3.999756 14.000179 v -43.9999 H 51.999927 48.000171 V 275 h -5.800163 -8.400004 z m 7.00009,17.99942 h 6.00015 v 20.00033 h -6.00015 z" />
    <path
       id="path593"
       style="fill:#800000;stroke-width:0"
       d="m 449.99997,275.00026 v 6.00015 h -4.00027 -13.99966 v 43.9999 h 13.99966 4.00027 v 5.99963 h 5.80017 8.4 5.80016 v -5.99963 h 3.99976 14.00018 v -43.9999 h -14.00018 -3.99976 v -6.00015 h -5.80016 -8.4 z m 7.00009,17.99942 h 6.00015 v 20.00033 h -6.00015 z" />
    <text
       xml:space="preserve"
       style="font-size:3.175px;line-height:1.25;font-family:sans-serif;stroke-width:0.264583"
       x="19.767456"
       y="222.35645"
       id="text597"><tspan
         sodipodi:role="line"
         id="tspan595"
         style="stroke-width:0.264583"
         x="19.767456"
         y="222.35645">36mm spacer</tspan></text>
  </g>
</svg>
