<?xml version="1.0" encoding="UTF-8" standalone="no"?>
<!-- Created with Inkscape (http://www.inkscape.org/) -->

<svg
   width="594mm"
   height="420mm"
   viewBox="0 0 594 420"
   version="1.1"
   id="svg5"
   inkscape:version="1.2.2 (b0a8486541, 2022-12-01)"
   sodipodi:docname="drum-200mm.svg"
   xmlns:inkscape="http://www.inkscape.org/namespaces/inkscape"
   xmlns:sodipodi="http://sodipodi.sourceforge.net/DTD/sodipodi-0.dtd"
   xmlns="http://www.w3.org/2000/svg"
   xmlns:svg="http://www.w3.org/2000/svg">
  <sodipodi:namedview
     id="namedview7"
     pagecolor="#ffffff"
     bordercolor="#666666"
     borderopacity="1.0"
     inkscape:pageshadow="2"
     inkscape:pageopacity="0.0"
     inkscape:pagecheckerboard="0"
     inkscape:document-units="mm"
     showgrid="false"
     inkscape:zoom="1.4142136"
     inkscape:cx="583.36309"
     inkscape:cy="1488.8133"
     inkscape:window-width="1882"
     inkscape:window-height="1016"
     inkscape:window-x="0"
     inkscape:window-y="0"
     inkscape:window-maximized="1"
     inkscape:current-layer="layer1"
     inkscape:showpageshadow="2"
     inkscape:deskcolor="#d1d1d1" />
  <defs
     id="defs2" />
  <g
     inkscape:label="Layer 1"
     inkscape:groupmode="layer"
     id="layer1">
    <path
       id="path17295-1"
       style="opacity:1;fill:#800000;stroke:#000000;stroke-width:0;stroke-miterlimit:4;stroke-dasharray:none"
       d="m 481.56853,30.000001 -4.00804,0.91519 -1.39059,7.09205 0.29972,2.74715 1.26658,3.45352 -6.68588,3.21996 -1.91048,-3.14347 -1.96115,-1.9477 -6.41149,-3.33468 -3.21479,2.56368 1.8247,6.99286 1.46246,2.34506 2.63961,2.56212 -4.62711,5.80223 -3.08507,-2.00348 -2.61173,-0.90384 -7.22385,-0.2222 -1.78387,3.70417 4.67775,5.5087 2.33526,1.47847 3.48971,1.16324 -1.65106,7.23469 -3.64939,-0.46612 -2.74505,0.31885 L 440,78.014121 v 4.11136 l 6.60477,2.93368 2.74505,0.31885 3.64939,-0.46612 1.65106,7.23469 -3.48971,1.16324 -2.33526,1.47846 -4.67775,5.508709 1.78387,3.70469 7.22385,-0.22272 2.61173,-0.90382 3.08507,-2.00351 4.62711,5.80224 -2.63961,2.56212 -1.46246,2.34508 -1.8247,6.99286 3.21479,2.56365 6.41149,-3.33468 1.96115,-1.94767 1.91048,-3.14349 6.68588,3.21995 -1.26658,3.45355 -0.29972,2.74712 1.39059,7.09208 4.00804,0.91516 4.32996,-5.7867 0.92192,-2.60503 0.35708,-3.66178 h 7.42124 l 0.35709,3.66178 0.92191,2.60503 4.32996,5.7867 4.00804,-0.91516 1.3906,-7.09208 -0.29972,-2.74712 -1.26709,-3.45355 6.68639,-3.21995 1.91048,3.14349 1.96114,1.94767 6.41149,3.33468 3.21426,-2.56365 -1.82417,-6.99286 -1.46245,-2.34508 -2.63962,-2.56212 4.62711,-5.80224 3.08507,2.00351 2.61173,0.90382 7.22384,0.22272 1.78387,-3.70469 -4.67775,-5.508709 -2.33524,-1.47846 -3.48972,-1.16324 1.65105,-7.23469 3.6494,0.46612 2.74505,-0.31885 6.60477,-2.93368 v -4.11136 l -6.60477,-2.93367 -2.74505,-0.31885 -3.6494,0.46612 -1.65105,-7.23469 3.48972,-1.16324 2.33524,-1.47847 4.67775,-5.5087 -1.78387,-3.70417 -7.22384,0.2222 -2.61173,0.90384 -3.08507,2.00348 -4.62711,-5.80223 2.63962,-2.56212 1.46245,-2.34506 1.82417,-6.99286 -3.21426,-2.56368 -6.41149,3.33468 -1.96114,1.9477 -1.91048,3.14347 -6.68639,-3.21996 1.26709,-3.45352 0.29972,-2.74715 -1.3906,-7.09205 -4.00804,-0.91519 -4.32996,5.78673 -0.92191,2.60551 -0.35709,3.66128 h -7.42124 l -0.35708,-3.66128 -0.92192,-2.60551 z m 9.31932,32.05694 a 2,2 0 0 1 2.00041,1.99988 2,2 0 0 1 -2.00041,2.00041 2,2 0 0 1 -1.99988,-2.00041 2,2 0 0 1 1.99988,-1.99988 z m 0,7.06313 a 10.949999,10.949999 0 0 1 10.95023,10.94973 10.949999,10.949999 0 0 1 -10.95023,10.95023 10.949999,10.949999 0 0 1 -10.9497,-10.95023 10.949999,10.949999 0 0 1 10.9497,-10.94973 z m -15.99954,8.93694 a 1.9999999,1.9999999 0 0 1 1.99988,1.99988 1.9999999,1.9999999 0 0 1 -1.99988,2.00038 1.9999999,1.9999999 0 0 1 -2.00038,-2.00038 1.9999999,1.9999999 0 0 1 2.00038,-1.99988 z m 31.99961,0 a 1.9999999,1.9999999 0 0 1 2.00038,1.99988 1.9999999,1.9999999 0 0 1 -2.00038,2.00038 1.9999999,1.9999999 0 0 1 -1.99988,-2.00038 1.9999999,1.9999999 0 0 1 1.99988,-1.99988 z m -16.00007,16.00004 a 1.9999999,1.9999999 0 0 1 2.00041,1.99988 1.9999999,1.9999999 0 0 1 -2.00041,1.99988 1.9999999,1.9999999 0 0 1 -1.99988,-1.99988 1.9999999,1.9999999 0 0 1 1.99988,-1.99988 z" />
    <path
       id="path20252"
       style="opacity:1;fill:#800000;stroke:#000000;stroke-width:0;stroke-miterlimit:4;stroke-dasharray:none"
       d="m 370.06224,30 -3.2458,6.80889 -0.0496,1.57819 1.01287,4.72323 -6.36809,2.63756 -2.62361,-4.05556 -1.15136,-1.081089 -7.10965,-2.519211 -2.43551,2.43499 2.51976,7.10965 1.08106,1.15133 4.05556,2.62364 -2.63755,6.36807 -4.72324,-1.01285 -1.57819,0.0496 L 340,60.06225 v 3.44424 l 6.80889,3.245771 1.57819,0.0496 4.72324,-1.012851 2.63755,6.3681 -4.05556,2.62361 -1.08106,1.151331 -2.51976,7.10965 2.43551,2.43501 7.10965,-2.519229 1.15136,-1.081091 2.62361,-4.05556 6.36809,2.63758 -1.01287,4.72321 0.0496,1.57821 3.2458,6.80887 h 3.44424 l 3.2458,-6.80887 0.0496,-1.57821 -1.01288,-4.72321 6.3681,-2.63758 2.62361,4.05556 1.15136,1.081091 7.10964,2.519229 2.43549,-2.43501 -2.51973,-7.10965 -1.08106,-1.151331 -4.05556,-2.623609 2.63755,-6.3681 4.72324,1.01285 1.57818,-0.0496 6.8089,-3.24577 v -3.44424 l -6.8089,-3.24581 -1.57818,-0.0496 -4.72324,1.01285 -2.63755,-6.36807 4.05556,-2.62364 1.08106,-1.15133 2.51973,-7.109651 -2.43549,-2.43499 -7.10964,2.519211 -1.15136,1.08109 -2.62361,4.05556 -6.3681,-2.63756 1.01288,-4.72323 -0.0496,-1.57819 L 373.50648,30 Z m 1.72185,17.784441 a 1.9999999,1.9999999 0 0 1 2.00041,1.999879 1.9999999,1.9999999 0 0 1 -2.00041,1.99988 1.9999999,1.9999999 0 0 1 -1.99988,-1.99988 1.9999999,1.9999999 0 0 1 1.99988,-1.999879 z m 5.3e-4,9.999899 a 4.0000173,3.9999999 0 0 1 3.99976,4.00026 4.0000173,3.9999999 0 0 1 -3.99976,3.99976 4.0000173,3.9999999 0 0 1 -4.00028,-3.99976 4.0000173,3.9999999 0 0 1 4.00028,-4.00026 z m -12.00031,1.99988 a 1.9999999,1.9999999 0 0 1 1.99988,1.99988 1.9999999,1.9999999 0 0 1 -1.99988,2.00038 1.9999999,1.9999999 0 0 1 -1.99988,-2.00038 1.9999999,1.9999999 0 0 1 1.99988,-1.99988 z m 24.00009,0 a 1.9999999,1.9999999 0 0 1 1.99988,1.99988 1.9999999,1.9999999 0 0 1 -1.99988,2.00038 1.9999999,1.9999999 0 0 1 -1.99988,-2.00038 1.9999999,1.9999999 0 0 1 1.99988,-1.99988 z m -12.00031,12.00031 a 2,2 0 0 1 2.00041,1.99988 2,2 0 0 1 -2.00041,1.99985 2,2 0 0 1 -1.99988,-1.99985 2,2 0 0 1 1.99988,-1.99988 z" />
    <path
       id="path846"
       style="fill:#800000;stroke:#00ff00;stroke-width:0"
       d="M 396.84961 68.03125 L 396.84961 90.708984 L 359.05469 90.708984 L 359.05469 68.873047 A 351.49606 351.49606 0 0 0 68.867188 359.05469 L 90.708984 359.05469 L 90.708984 396.84961 L 68.03125 396.84961 L 68.03125 434.64648 L 90.708984 434.64648 L 90.708984 472.44141 L 68.873047 472.44141 A 351.49606 351.49606 0 0 0 359.05469 762.62891 L 359.05469 740.78711 L 396.84961 740.78711 L 396.84961 763.46484 L 434.64648 763.46484 L 434.64648 740.78711 L 472.44141 740.78711 L 472.44141 762.63086 A 351.49606 351.49606 0 0 0 762.63867 472.44141 L 740.78711 472.44141 L 740.78711 434.64648 L 763.46484 434.64648 L 763.46484 396.84961 L 740.78711 396.84961 L 740.78711 359.05469 L 762.63086 359.05469 A 351.49606 351.49606 0 0 0 472.44141 68.857422 L 472.44141 90.708984 L 434.64648 90.708984 L 434.64648 68.03125 L 396.84961 68.03125 z M 415.74805 272.12695 A 7.5590541 7.5590541 0 0 1 423.30664 279.68555 A 7.5590541 7.5590541 0 0 1 415.74805 287.24414 A 7.5590541 7.5590541 0 0 1 408.18945 279.68555 A 7.5590541 7.5590541 0 0 1 415.74805 272.12695 z M 415.74805 317.48047 A 7.5590536 7.5590536 0 0 1 423.30664 325.03906 A 7.5590536 7.5590536 0 0 1 415.74805 332.59766 A 7.5590536 7.5590536 0 0 1 408.18945 325.03906 A 7.5590536 7.5590536 0 0 1 415.74805 317.48047 z M 415.74805 362.83398 A 7.5590532 7.5590532 0 0 1 423.30664 370.39453 A 7.5590532 7.5590532 0 0 1 415.74805 377.95312 A 7.5590532 7.5590532 0 0 1 408.18945 370.39453 A 7.5590532 7.5590532 0 0 1 415.74805 362.83398 z M 415.74805 400.63086 A 15.118108 15.118108 0 0 1 430.86523 415.74805 A 15.118108 15.118108 0 0 1 415.74805 430.86523 A 15.118108 15.118108 0 0 1 400.63086 415.74805 A 15.118108 15.118108 0 0 1 415.74805 400.63086 z M 279.68555 408.18945 A 7.559054 7.559054 0 0 1 287.24414 415.74805 A 7.559054 7.559054 0 0 1 279.68555 423.30664 A 7.559054 7.559054 0 0 1 272.12695 415.74805 A 7.559054 7.559054 0 0 1 279.68555 408.18945 z M 325.03906 408.18945 A 7.5590539 7.5590539 0 0 1 332.59766 415.74805 A 7.5590539 7.5590539 0 0 1 325.03906 423.30664 A 7.5590539 7.5590539 0 0 1 317.48047 415.74805 A 7.5590539 7.5590539 0 0 1 325.03906 408.18945 z M 370.39453 408.18945 A 7.5590533 7.5590533 0 0 1 377.95312 415.74805 A 7.5590533 7.5590533 0 0 1 370.39453 423.30664 A 7.5590533 7.5590533 0 0 1 362.83398 415.74805 A 7.5590533 7.5590533 0 0 1 370.39453 408.18945 z M 461.10156 408.18945 A 7.5590535 7.5590535 0 0 1 468.66211 415.74805 A 7.5590535 7.5590535 0 0 1 461.10156 423.30664 A 7.5590535 7.5590535 0 0 1 453.54297 415.74805 A 7.5590535 7.5590535 0 0 1 461.10156 408.18945 z M 506.45703 408.18945 A 7.5590537 7.5590537 0 0 1 514.01562 415.74805 A 7.5590537 7.5590537 0 0 1 506.45703 423.30664 A 7.5590537 7.5590537 0 0 1 498.89844 415.74805 A 7.5590537 7.5590537 0 0 1 506.45703 408.18945 z M 551.81055 408.18945 A 7.5590542 7.5590542 0 0 1 559.36914 415.74805 A 7.5590542 7.5590542 0 0 1 551.81055 423.30664 A 7.5590542 7.5590542 0 0 1 544.25195 415.74805 A 7.5590542 7.5590542 0 0 1 551.81055 408.18945 z M 415.74805 453.54297 A 7.5590534 7.5590534 0 0 1 423.30664 461.10156 A 7.5590534 7.5590534 0 0 1 415.74805 468.66211 A 7.5590534 7.5590534 0 0 1 408.18945 461.10156 A 7.5590534 7.5590534 0 0 1 415.74805 453.54297 z M 415.74805 498.89844 A 7.5590538 7.5590538 0 0 1 423.30664 506.45703 A 7.5590538 7.5590538 0 0 1 415.74805 514.01562 A 7.5590538 7.5590538 0 0 1 408.18945 506.45703 A 7.5590538 7.5590538 0 0 1 415.74805 498.89844 z M 415.74805 544.25195 A 7.5590546 7.5590546 0 0 1 423.30664 551.81055 A 7.5590546 7.5590546 0 0 1 415.74805 559.36914 A 7.5590546 7.5590546 0 0 1 408.18945 551.81055 A 7.5590546 7.5590546 0 0 1 415.74805 544.25195 z "
       transform="scale(0.26458333)" />
    <path
       id="rect2103"
       style="fill:#800000;stroke:#00ff00;stroke-width:0"
       d="M 75.589844,831.49609 V 944.88281 H 1285.0391 V 831.49609 Z m 37.796876,37.79493 h 22.67578 v 37.79492 h -22.67578 z m 555.58984,0 h 22.67774 v 37.79492 h -22.67774 z m 555.58984,0 h 22.6777 v 37.79492 h -22.6777 z M 181.41797,884.41016 a 3.7795276,3.7795276 0 0 1 3.7793,3.77929 3.7795276,3.7795276 0 0 1 -3.7793,3.7793 3.7795276,3.7795276 0 0 1 -3.7793,-3.7793 3.7795276,3.7795276 0 0 1 3.7793,-3.77929 z m 90.70898,0 a 3.7795276,3.7795276 0 0 1 3.7793,3.77929 3.7795276,3.7795276 0 0 1 -3.7793,3.7793 3.7795276,3.7795276 0 0 1 -3.78125,-3.7793 3.7795276,3.7795276 0 0 1 3.78125,-3.77929 z m 90.70703,0 a 3.7795276,3.7795276 0 0 1 3.7793,3.77929 3.7795276,3.7795276 0 0 1 -3.7793,3.7793 3.7795276,3.7795276 0 0 1 -3.77929,-3.7793 3.7795276,3.7795276 0 0 1 3.77929,-3.77929 z m 90.70899,0 a 3.7795276,3.7795276 0 0 1 3.7793,3.77929 3.7795276,3.7795276 0 0 1 -3.7793,3.7793 3.7795276,3.7795276 0 0 1 -3.7793,-3.7793 3.7795276,3.7795276 0 0 1 3.7793,-3.77929 z m 90.70898,0 a 3.7795276,3.7795276 0 0 1 3.7793,3.77929 3.7795276,3.7795276 0 0 1 -3.7793,3.7793 3.7795276,3.7795276 0 0 1 -3.77929,-3.7793 3.7795276,3.7795276 0 0 1 3.77929,-3.77929 z m 90.70899,0 a 3.7795276,3.7795276 0 0 1 3.77929,3.77929 3.7795276,3.7795276 0 0 1 -3.77929,3.7793 3.7795276,3.7795276 0 0 1 -3.7793,-3.7793 3.7795276,3.7795276 0 0 1 3.7793,-3.77929 z m 90.70898,0 a 3.7795276,3.7795276 0 0 1 3.7793,3.77929 3.7795276,3.7795276 0 0 1 -3.7793,3.7793 3.7795276,3.7795276 0 0 1 -3.7793,-3.7793 3.7795276,3.7795276 0 0 1 3.7793,-3.77929 z m 90.70899,0 a 3.7795276,3.7795276 0 0 1 3.77929,3.77929 3.7795276,3.7795276 0 0 1 -3.77929,3.7793 3.7795276,3.7795276 0 0 1 -3.78125,-3.7793 3.7795276,3.7795276 0 0 1 3.78125,-3.77929 z m 90.70703,0 a 3.7795276,3.7795276 0 0 1 3.77929,3.77929 3.7795276,3.7795276 0 0 1 -3.77929,3.7793 3.7795276,3.7795276 0 0 1 -3.7793,-3.7793 3.7795276,3.7795276 0 0 1 3.7793,-3.77929 z m 90.70898,0 a 3.7795276,3.7795276 0 0 1 3.77928,3.77929 3.7795276,3.7795276 0 0 1 -3.77928,3.7793 3.7795276,3.7795276 0 0 1 -3.7793,-3.7793 3.7795276,3.7795276 0 0 1 3.7793,-3.77929 z m 90.70898,0 a 3.7795276,3.7795276 0 0 1 3.7793,3.77929 3.7795276,3.7795276 0 0 1 -3.7793,3.7793 3.7795276,3.7795276 0 0 1 -3.7793,-3.7793 3.7795276,3.7795276 0 0 1 3.7793,-3.77929 z m 90.709,0 a 3.7795276,3.7795276 0 0 1 3.7793,3.77929 3.7795276,3.7795276 0 0 1 -3.7793,3.7793 3.7795276,3.7795276 0 0 1 -3.7793,-3.7793 3.7795276,3.7795276 0 0 1 3.7793,-3.77929 z"
       transform="scale(0.26458333)" />
    <path
       id="rect2103-3"
       style="fill:#800000;stroke:#00ff00;stroke-width:0"
       d="M 19.999813 330.00001 L 19.999813 349.99983 L 339.99992 349.99983 L 339.99992 330.00001 L 19.999813 330.00001 z M 48.000171 338.00004 A 1.999999 1.9999993 0 0 1 50.000049 339.99992 A 1.999999 1.9999993 0 0 1 48.000171 341.9998 A 1.999999 1.9999993 0 0 1 45.999776 339.99992 A 1.999999 1.9999993 0 0 1 48.000171 338.00004 z M 72.000256 338.00004 A 1.999999 1.9999993 0 0 1 74.000134 339.99992 A 1.999999 1.9999993 0 0 1 72.000256 341.9998 A 1.999999 1.9999993 0 0 1 69.999862 339.99992 A 1.999999 1.9999993 0 0 1 72.000256 338.00004 z M 95.999825 338.00004 A 1.999999 1.9999993 0 0 1 98.00022 339.99992 A 1.999999 1.9999993 0 0 1 95.999825 341.9998 A 1.999999 1.9999993 0 0 1 93.999947 339.99992 A 1.999999 1.9999993 0 0 1 95.999825 338.00004 z M 119.99991 338.00004 A 1.999999 1.9999993 0 0 1 121.99979 339.99992 A 1.999999 1.9999993 0 0 1 119.99991 341.9998 A 1.999999 1.9999993 0 0 1 118.00003 339.99992 A 1.999999 1.9999993 0 0 1 119.99991 338.00004 z M 144 338.00004 A 1.999999 1.9999993 0 0 1 145.99987 339.99992 A 1.999999 1.9999993 0 0 1 144 341.9998 A 1.999999 1.9999993 0 0 1 142.00012 339.99992 A 1.999999 1.9999993 0 0 1 144 338.00004 z M 168.00008 338.00004 A 1.999999 1.9999993 0 0 1 169.99996 339.99992 A 1.999999 1.9999993 0 0 1 168.00008 341.9998 A 1.999999 1.9999993 0 0 1 166.0002 339.99992 A 1.999999 1.9999993 0 0 1 168.00008 338.00004 z M 192.00017 338.00004 A 1.999999 1.9999993 0 0 1 194.00004 339.99992 A 1.999999 1.9999993 0 0 1 192.00017 341.9998 A 1.999999 1.9999993 0 0 1 189.99977 339.99992 A 1.999999 1.9999993 0 0 1 192.00017 338.00004 z M 216.00025 338.00004 A 1.999999 1.9999993 0 0 1 218.00013 339.99992 A 1.999999 1.9999993 0 0 1 216.00025 341.9998 A 1.999999 1.9999993 0 0 1 213.99986 339.99992 A 1.999999 1.9999993 0 0 1 216.00025 338.00004 z M 239.99982 338.00004 A 1.999999 1.9999993 0 0 1 242.00022 339.99992 A 1.999999 1.9999993 0 0 1 239.99982 341.9998 A 1.999999 1.9999993 0 0 1 237.99994 339.99992 A 1.999999 1.9999993 0 0 1 239.99982 338.00004 z M 263.99991 338.00004 A 1.999999 1.9999993 0 0 1 265.99978 339.99992 A 1.999999 1.9999993 0 0 1 263.99991 341.9998 A 1.999999 1.9999993 0 0 1 262.00003 339.99992 A 1.999999 1.9999993 0 0 1 263.99991 338.00004 z M 287.99999 338.00004 A 1.999999 1.9999993 0 0 1 289.99987 339.99992 A 1.999999 1.9999993 0 0 1 287.99999 341.9998 A 1.999999 1.9999993 0 0 1 286.00011 339.99992 A 1.999999 1.9999993 0 0 1 287.99999 338.00004 z M 312.00008 338.00004 A 1.999999 1.9999993 0 0 1 313.99996 339.99992 A 1.999999 1.9999993 0 0 1 312.00008 341.9998 A 1.999999 1.9999993 0 0 1 310.0002 339.99992 A 1.999999 1.9999993 0 0 1 312.00008 338.00004 z " />
    <text
       xml:space="preserve"
       style="font-style:normal;font-variant:normal;font-weight:normal;font-stretch:normal;font-size:4.93889px;line-height:1.25;font-family:sans-serif;-inkscape-font-specification:sans-serif;letter-spacing:0px;fill:#000000;fill-opacity:1;stroke:none;stroke-width:0.264583"
       x="19.767456"
       y="403.21634"
       id="text7311"><tspan
         sodipodi:role="line"
         style="font-style:normal;font-variant:normal;font-weight:bold;font-stretch:normal;font-size:4.23333px;font-family:sans-serif;-inkscape-font-specification:'sans-serif Bold';stroke-width:0.264583"
         x="19.767456"
         y="403.21634"
         id="tspan24361">Drum Carder</tspan><tspan
         sodipodi:role="line"
         style="font-style:normal;font-variant:normal;font-weight:normal;font-stretch:normal;font-size:3.175px;font-family:sans-serif;-inkscape-font-specification:sans-serif;stroke-width:0.264583"
         x="19.767456"
         y="409.38995"
         id="tspan42755">200mm drum - 6mm plywood (birch or poplar) - 20230602</tspan></text>
    <text
       xml:space="preserve"
       style="font-style:normal;font-weight:normal;font-size:3.175px;line-height:1.25;font-family:sans-serif;fill:#000000;fill-opacity:1;stroke:none;stroke-width:0.264583"
       x="19.778309"
       y="212.41226"
       id="text58285"><tspan
         sodipodi:role="line"
         style="font-size:3.175px;stroke-width:0.264583"
         x="19.778309"
         y="212.41226"
         id="tspan2015">Infill rib (4x)</tspan></text>
    <text
       xml:space="preserve"
       style="font-style:normal;font-weight:normal;font-size:3.175px;line-height:1.25;font-family:sans-serif;fill:#000000;fill-opacity:1;stroke:none;stroke-width:0.264583"
       x="19.688391"
       y="22.412256"
       id="text58285-3"><tspan
         sodipodi:role="line"
         style="font-size:3.175px;stroke-width:0.264583"
         x="19.688391"
         y="22.412256"
         id="tspan3391">Infill disc (3x)</tspan></text>
    <text
       xml:space="preserve"
       style="font-style:normal;font-weight:normal;font-size:3.175px;line-height:1.25;font-family:sans-serif;fill:#000000;fill-opacity:1;stroke:none;stroke-width:0.264583"
       x="209.84497"
       y="22.412256"
       id="text58285-3-0"><tspan
         sodipodi:role="line"
         style="font-size:3.175px;stroke-width:0.264583"
         x="209.84497"
         y="22.412256"
         id="tspan3391-3">Bearing disc (4x)</tspan></text>
    <text
       xml:space="preserve"
       style="font-style:normal;font-weight:normal;font-size:3.175px;line-height:1.25;font-family:sans-serif;fill:#000000;fill-opacity:1;stroke:none;stroke-width:0.264583"
       x="339.68839"
       y="22.409155"
       id="text58285-3-0-7"><tspan
         sodipodi:role="line"
         style="font-size:3.175px;stroke-width:0.264583"
         x="339.68839"
         y="22.409155"
         id="tspan3391-3-5">Drum gear (3x)</tspan></text>
    <path
       id="path852"
       style="fill:#800000;stroke:#00ff00;stroke-width:0"
       d="M 997.79492,75.589844 A 166.29921,166.29921 0 0 0 831.49609,241.89062 166.29921,166.29921 0 0 0 997.79492,408.18945 166.29921,166.29921 0 0 0 1164.0938,241.89062 166.29921,166.29921 0 0 0 997.79492,75.589844 Z m 0,22.677734 a 7.559055,7.559055 0 0 1 7.55858,7.558592 7.559055,7.559055 0 0 1 -7.55858,7.56055 7.559055,7.559055 0 0 1 -7.55859,-7.56055 7.559055,7.559055 0 0 1 7.55859,-7.558592 z m 0,45.353512 a 7.559055,7.559055 0 0 1 7.55858,7.56055 7.559055,7.559055 0 0 1 -7.55858,7.55859 7.559055,7.559055 0 0 1 -7.55859,-7.55859 7.559055,7.559055 0 0 1 7.55859,-7.56055 z m 0,45.35547 a 7.559055,7.559055 0 0 1 7.55858,7.5586 7.559055,7.559055 0 0 1 -7.55858,7.55859 7.559055,7.559055 0 0 1 -7.55859,-7.55859 7.559055,7.559055 0 0 1 7.55859,-7.5586 z m 0,37.79492 a 15.11811,15.11811 0 0 1 15.11918,15.11914 15.11811,15.11811 0 0 1 -15.11918,15.11719 15.11811,15.11811 0 0 1 -15.11719,-15.11719 15.11811,15.11811 0 0 1 15.11719,-15.11914 z m -136.0625,7.5586 a 7.559055,7.559055 0 0 1 7.5586,7.56054 7.559055,7.559055 0 0 1 -7.5586,7.5586 7.559055,7.559055 0 0 1 -7.55859,-7.5586 7.559055,7.559055 0 0 1 7.55859,-7.56054 z m 45.35352,0 a 7.559055,7.559055 0 0 1 7.56054,7.56054 7.559055,7.559055 0 0 1 -7.56054,7.5586 7.559055,7.559055 0 0 1 -7.5586,-7.5586 7.559055,7.559055 0 0 1 7.5586,-7.56054 z m 45.35547,0 a 7.559055,7.559055 0 0 1 7.55859,7.56054 7.559055,7.559055 0 0 1 -7.55859,7.5586 7.559055,7.559055 0 0 1 -7.5586,-7.5586 7.559055,7.559055 0 0 1 7.5586,-7.56054 z m 90.70899,0 a 7.559055,7.559055 0 0 1 7.5586,7.56054 7.559055,7.559055 0 0 1 -7.5586,7.5586 7.559055,7.559055 0 0 1 -7.5606,-7.5586 7.559055,7.559055 0 0 1 7.5606,-7.56054 z m 45.3535,0 a 7.559055,7.559055 0 0 1 7.5586,7.56054 7.559055,7.559055 0 0 1 -7.5586,7.5586 7.559055,7.559055 0 0 1 -7.5586,-7.5586 7.559055,7.559055 0 0 1 7.5586,-7.56054 z m 45.3535,0 a 7.559055,7.559055 0 0 1 7.5606,7.56054 7.559055,7.559055 0 0 1 -7.5606,7.5586 7.559055,7.559055 0 0 1 -7.5586,-7.5586 7.559055,7.559055 0 0 1 7.5586,-7.56054 z m -136.06248,45.35547 a 7.559055,7.559055 0 0 1 7.55858,7.55859 7.559055,7.559055 0 0 1 -7.55858,7.55859 7.559055,7.559055 0 0 1 -7.55859,-7.55859 7.559055,7.559055 0 0 1 7.55859,-7.55859 z m 0,45.35351 a 7.559055,7.559055 0 0 1 7.55858,7.5586 7.559055,7.559055 0 0 1 -7.55858,7.56054 7.559055,7.559055 0 0 1 -7.55859,-7.56054 7.559055,7.559055 0 0 1 7.55859,-7.5586 z m 0,45.35547 a 7.559055,7.559055 0 0 1 7.55858,7.55859 7.559055,7.559055 0 0 1 -7.55858,7.5586 7.559055,7.559055 0 0 1 -7.55859,-7.5586 7.559055,7.559055 0 0 1 7.55859,-7.55859 z"
       transform="scale(0.26458333)" />
    <text
       xml:space="preserve"
       style="font-style:normal;font-weight:normal;font-size:3.175px;line-height:1.25;font-family:sans-serif;fill:#000000;fill-opacity:1;stroke:none;stroke-width:0.264583"
       x="19.778309"
       y="262.41226"
       id="text27290"><tspan
         sodipodi:role="line"
         style="font-size:3.175px;stroke-width:0.264583"
         x="19.778309"
         y="262.41226"
         id="tspan27288">Crank (2x)</tspan></text>
    <text
       xml:space="preserve"
       style="font-style:normal;font-weight:normal;font-size:3.175px;line-height:1.25;font-family:sans-serif;fill:#000000;fill-opacity:1;stroke:none;stroke-width:0.264583"
       x="239.82172"
       y="262.41226"
       id="text854"><tspan
         sodipodi:role="line"
         style="font-size:3.175px;stroke-width:0.264583"
         x="239.82172"
         y="262.41226"
         id="tspan852">Crank spacer (1x)</tspan></text>
    <path
       id="path9284"
       style="fill:#800000;stroke:#00ff00;stroke-width:0"
       d="m 59.999953,270 c -22.091703,-4e-5 -40.000506,8.95448 -40.00014,20.00033 2.2e-4,11.04564 17.908851,19.99984 40.00014,19.9998 H 179.99992 c 22.0913,4e-5 39.99994,-8.95415 40.00015,-19.9998 C 220.00044,278.95448 202.09163,269.99996 179.99992,270 Z m 0,6.00014 c 1.104476,7e-5 1.999814,0.8954 1.99988,1.99988 -6.6e-5,1.10448 -0.895404,1.99981 -1.99988,1.99988 -1.104475,-7e-5 -1.999811,-0.89541 -1.999877,-1.99988 6.6e-5,-1.10447 0.895402,-1.99981 1.999877,-1.99988 z m 0,9.9999 c 2.209359,-1.5e-4 4.000433,1.79093 4.000273,4.00029 -1.49e-4,2.20914 -1.791133,3.99988 -4.000273,3.99973 -2.208937,-1.4e-4 -3.999604,-1.79079 -3.999753,-3.99973 -1.6e-4,-2.20916 1.790597,-4.00015 3.999753,-4.00029 z m -35.999868,1.99988 c 1.104682,7e-5 2.000105,0.89573 1.999878,2.00041 -6.6e-5,1.10448 -0.895403,1.99981 -1.999878,1.99988 -1.104475,-7e-5 -1.999812,-0.8954 -1.999878,-1.99988 -2.27e-4,-1.10468 0.895196,-2.00034 1.999878,-2.00041 z m 11.999784,0 c 1.104682,7e-5 2.000104,0.89573 1.999877,2.00041 -6.6e-5,1.10447 -0.895402,1.99981 -1.999877,1.99988 -1.104475,-7e-5 -1.999811,-0.89541 -1.999877,-1.99988 -2.27e-4,-1.10468 0.895195,-2.00034 1.999877,-2.00041 z m 12.000302,0 c 1.104682,7e-5 2.000104,0.89573 1.999877,2.00041 -6.6e-5,1.10447 -0.895402,1.99981 -1.999877,1.99988 -1.104677,2.2e-4 -2.00033,-0.8952 -2.000396,-1.99988 -2.27e-4,-1.10488 0.895512,-2.00063 2.000396,-2.00041 z m 24.000084,0 c 1.104682,7e-5 2.000106,0.89573 1.999879,2.00041 -6.6e-5,1.10448 -0.895404,1.99981 -1.999879,1.99988 -1.104676,2.2e-4 -2.000327,-0.8952 -2.000393,-1.99988 -2.27e-4,-1.10488 0.89551,-2.00063 2.000393,-2.00041 z m 11.999785,0 c 1.104682,7e-5 2.000104,0.89573 1.999877,2.00041 -6.6e-5,1.10447 -0.895402,1.99981 -1.999877,1.99988 -1.104475,-7e-5 -1.999811,-0.89541 -1.999877,-1.99988 -2.27e-4,-1.10468 0.895195,-2.00034 1.999877,-2.00041 z m 11.999783,0 c 1.104884,-2.2e-4 2.000622,0.89553 2.000395,2.00041 -6.6e-5,1.10468 -0.895718,2.0001 -2.000395,1.99988 -1.104475,-7e-5 -1.999811,-0.89541 -1.999877,-1.99988 -2.27e-4,-1.10468 0.895195,-2.00034 1.999877,-2.00041 z m 103.999917,0 c 1.10489,-2.2e-4 2.00062,0.89553 2.00039,2.00041 -6e-5,1.10468 -0.89571,2.0001 -2.00039,1.99988 -1.10447,-7e-5 -1.99981,-0.8954 -1.99988,-1.99988 -2.2e-4,-1.10468 0.8952,-2.00034 1.99988,-2.00041 z M 59.999953,300.00023 c 1.104476,7e-5 1.999814,0.8954 1.99988,1.99988 -6.6e-5,1.10448 -0.895404,1.99981 -1.99988,1.99988 -1.104475,-7e-5 -1.999811,-0.89541 -1.999877,-1.99988 6.6e-5,-1.10447 0.895402,-1.99981 1.999877,-1.99988 z"
       sodipodi:nodetypes="ccccccccccccssssscccccccccccccccccccccccccccccccccccccccc" />
    <path
       id="path9961"
       style="fill:#800000;stroke:#00ff00;stroke-width:0"
       d="M 280.00014,270 A 39.999999,20 0 0 0 240,290.00033 a 39.999999,20 0 0 0 40.00014,19.9998 39.999999,20 0 0 0 40.00015,-19.9998 A 39.999999,20 0 0 0 280.00014,270 Z m 0,6.00014 a 1.9999997,1.9999996 0 0 1 1.99988,1.99988 1.9999997,1.9999996 0 0 1 -1.99988,1.99988 1.9999997,1.9999996 0 0 1 -1.99988,-1.99988 1.9999997,1.9999996 0 0 1 1.99988,-1.99988 z m 0,9.9999 a 3.9999994,3.9999994 0 0 1 4.00027,4.00029 3.9999994,3.9999994 0 0 1 -4.00027,3.99973 3.9999994,3.9999994 0 0 1 -3.99975,-3.99973 3.9999994,3.9999994 0 0 1 3.99975,-4.00029 z m -35.99987,1.99988 a 1.9999997,1.9999996 0 0 1 1.99988,2.00041 1.9999997,1.9999996 0 0 1 -1.99988,1.99988 1.9999997,1.9999996 0 0 1 -1.99988,-1.99988 1.9999997,1.9999996 0 0 1 1.99988,-2.00041 z m 11.99979,0 a 1.9999997,1.9999996 0 0 1 1.99987,2.00041 1.9999997,1.9999996 0 0 1 -1.99987,1.99988 1.9999997,1.9999996 0 0 1 -1.99988,-1.99988 1.9999997,1.9999996 0 0 1 1.99988,-2.00041 z m 12.0003,0 a 1.9999997,1.9999996 0 0 1 1.99988,2.00041 1.9999997,1.9999996 0 0 1 -1.99988,1.99988 1.9999997,1.9999996 0 0 1 -2.0004,-1.99988 1.9999997,1.9999996 0 0 1 2.0004,-2.00041 z m 24.00008,0 a 1.9999997,1.9999996 0 0 1 1.99988,2.00041 1.9999997,1.9999996 0 0 1 -1.99988,1.99988 1.9999997,1.9999996 0 0 1 -2.00039,-1.99988 1.9999997,1.9999996 0 0 1 2.00039,-2.00041 z m 11.99979,0 a 1.9999997,1.9999996 0 0 1 1.99987,2.00041 1.9999997,1.9999996 0 0 1 -1.99987,1.99988 1.9999997,1.9999996 0 0 1 -1.99988,-1.99988 1.9999997,1.9999996 0 0 1 1.99988,-2.00041 z m 11.99978,0 a 1.9999997,1.9999996 0 0 1 2.0004,2.00041 1.9999997,1.9999996 0 0 1 -2.0004,1.99988 1.9999997,1.9999996 0 0 1 -1.99988,-1.99988 1.9999997,1.9999996 0 0 1 1.99988,-2.00041 z m -35.99987,12.00031 a 1.9999997,1.9999996 0 0 1 1.99988,1.99988 1.9999997,1.9999996 0 0 1 -1.99988,1.99988 1.9999997,1.9999996 0 0 1 -1.99988,-1.99988 1.9999997,1.9999996 0 0 1 1.99988,-1.99988 z" />
    <text
       xml:space="preserve"
       style="font-style:normal;font-weight:normal;font-size:3.175px;line-height:1.25;font-family:sans-serif;fill:#000000;fill-opacity:1;stroke:none;stroke-width:0.264583"
       x="439.68839"
       y="22.409155"
       id="text24593"><tspan
         sodipodi:role="line"
         style="font-size:3.175px;stroke-width:0.264583"
         x="439.68839"
         y="22.409155"
         id="tspan24591">Pulley gear (2x)</tspan></text>
    <text
       xml:space="preserve"
       style="font-style:normal;font-weight:normal;font-size:3.175px;line-height:1.25;font-family:sans-serif;fill:#000000;fill-opacity:1;stroke:none;stroke-width:0.264583"
       x="439.68839"
       y="152.41226"
       id="text29920"><tspan
         sodipodi:role="line"
         style="font-size:3.175px;stroke-width:0.264583"
         x="439.68839"
         y="152.41226"
         id="tspan29918">Pulley top (2x)</tspan></text>
    <path
       id="path40046"
       style="opacity:1;fill:#800000;fill-opacity:1;stroke-width:0;stroke-miterlimit:4;stroke-dasharray:none"
       d="M 461.99968,160 A 21.999999,21.999999 0 0 0 440,182.00021 21.999999,21.999999 0 0 0 461.99968,203.9999 21.999999,21.999999 0 0 0 483.99989,182.00021 21.999999,21.999999 0 0 0 461.99968,160 Z m 0,4.00027 a 2,2 0 0 1 2.00041,1.99988 2,2 0 0 1 -2.00041,1.99988 2,2 0 0 1 -1.99988,-1.99988 2,2 0 0 1 1.99988,-1.99988 z m 0,7.0497 a 10.949999,10.949999 0 0 1 10.95026,10.95024 10.949999,10.949999 0 0 1 -10.95026,10.94972 10.949999,10.949999 0 0 1 -10.9497,-10.94972 10.949999,10.949999 0 0 1 10.9497,-10.95024 z m -16.00004,8.95036 a 1.9999999,1.9999999 0 0 1 2.00038,1.99988 1.9999999,1.9999999 0 0 1 -2.00038,1.99988 1.9999999,1.9999999 0 0 1 -1.99988,-1.99988 1.9999999,1.9999999 0 0 1 1.99988,-1.99988 z m 32.00011,0 a 1.9999999,1.9999999 0 0 1 1.99988,1.99988 1.9999999,1.9999999 0 0 1 -1.99988,1.99988 1.9999999,1.9999999 0 0 1 -1.99988,-1.99988 1.9999999,1.9999999 0 0 1 1.99988,-1.99988 z m -16.00007,16.00006 a 1.9999999,1.9999999 0 0 1 2.00041,1.99988 1.9999999,1.9999999 0 0 1 -2.00041,1.99987 1.9999999,1.9999999 0 0 1 -1.99988,-1.99987 1.9999999,1.9999999 0 0 1 1.99988,-1.99988 z" />
    <text
       xml:space="preserve"
       style="font-style:normal;font-weight:normal;font-size:3.175px;line-height:1.25;font-family:sans-serif;fill:#000000;fill-opacity:1;stroke:none;stroke-width:0.264583"
       x="19.821716"
       y="322.41226"
       id="text1244"><tspan
         sodipodi:role="line"
         style="font-size:3.175px;stroke-width:0.264583"
         x="19.821716"
         y="322.41226"
         id="tspan1242">Fabric clamp (4mm thick!)</tspan></text>
  </g>
</svg>
