<?xml version="1.0" encoding="UTF-8" standalone="no"?>
<!-- Created with Inkscape (http://www.inkscape.org/) -->

<svg
   width="594mm"
   height="420mm"
   viewBox="0 0 594 420"
   version="1.1"
   id="svg5"
   inkscape:version="1.2.2 (b0a8486541, 2022-12-01)"
   sodipodi:docname="drum-200mm-stand.svg"
   xmlns:inkscape="http://www.inkscape.org/namespaces/inkscape"
   xmlns:sodipodi="http://sodipodi.sourceforge.net/DTD/sodipodi-0.dtd"
   xmlns="http://www.w3.org/2000/svg"
   xmlns:svg="http://www.w3.org/2000/svg">
  <sodipodi:namedview
     id="namedview7"
     pagecolor="#ffffff"
     bordercolor="#666666"
     borderopacity="1.0"
     inkscape:pageshadow="2"
     inkscape:pageopacity="0.0"
     inkscape:pagecheckerboard="0"
     inkscape:document-units="mm"
     showgrid="false"
     inkscape:zoom="0.48191964"
     inkscape:cx="1184.8448"
     inkscape:cy="891.22742"
     inkscape:window-width="1882"
     inkscape:window-height="1016"
     inkscape:window-x="38"
     inkscape:window-y="27"
     inkscape:window-maximized="1"
     inkscape:current-layer="layer1"
     inkscape:showpageshadow="2"
     inkscape:deskcolor="#d1d1d1" />
  <defs
     id="defs2">
    <rect
       x="45.230719"
       y="1356.6273"
       width="298.14892"
       height="152.48577"
       id="rect47914" />
  </defs>
  <g
     inkscape:label="Layer 1"
     inkscape:groupmode="layer"
     id="layer1">
    <path
       id="rect3102"
       style="fill:#800000;stroke:#800000;stroke-width:0;stroke-linecap:round"
       d="M 239.00021,339.99992 A 5,5 0 0 0 234,345.00013 v 33.99999 a 5,5 0 0 0 5.00021,4.9997 h 69.99986 a 5,5 0 0 0 5.00022,-4.9997 v -33.99999 a 5,5 0 0 0 -5.00022,-5.00021 z m 0,3.00033 a 2,2 0 0 1 1.99988,1.99988 2,2 0 0 1 -1.99988,1.99988 2,2 0 0 1 -1.99988,-1.99988 2,2 0 0 1 1.99988,-1.99988 z m 69.99986,17 a 2,2 0 0 1 1.99988,1.99988 2,2 0 0 1 -1.99988,1.99987 2,2 0 0 1 -1.99987,-1.99987 2,2 0 0 1 1.99987,-1.99988 z m -69.99986,16.99999 a 2,2 0 0 1 1.99988,1.99988 2,2 0 0 1 -1.99988,1.99988 2,2 0 0 1 -1.99988,-1.99988 2,2 0 0 1 1.99988,-1.99988 z" />
    <path
       id="rect846"
       style="fill:#800000;stroke:#00ff00;stroke-width:0"
       d="M 75.589844 604.72461 L 75.589844 982.67773 L 75.589844 1209.4492 L 75.589844 1285.0391 L 75.589844 1360.6289 L 831.49414 1360.6289 L 831.49414 1285.0391 L 831.49609 1285.0391 L 831.49609 1209.4492 L 831.49414 1209.4492 L 831.49414 982.67773 L 831.49414 604.72461 L 631.17969 604.72461 A 177.6378 177.6378 0 0 1 627.89258 638.08398 A 177.6378 177.6378 0 0 1 627.45312 640.40625 A 177.6378 177.6378 0 0 1 617.89062 671.93945 A 177.6378 177.6378 0 0 1 617.10547 673.73828 A 177.6378 177.6378 0 0 1 601.60938 702.72852 A 177.6378 177.6378 0 0 1 600.9668 703.74805 A 177.6378 177.6378 0 0 1 579.94531 729.36328 A 177.6378 177.6378 0 0 1 578.18164 731.12695 A 177.6378 177.6378 0 0 1 552.55859 752.15625 A 177.6378 177.6378 0 0 1 551.5625 752.78125 A 177.6378 177.6378 0 0 1 522.55664 768.28711 A 177.6378 177.6378 0 0 1 520.75781 769.07227 A 177.6378 177.6378 0 0 1 489.2207 778.63672 A 177.6378 177.6378 0 0 1 486.91211 779.07422 A 177.6378 177.6378 0 0 1 453.54297 782.36133 A 177.6378 177.6378 0 0 1 420.17188 779.07422 A 177.6378 177.6378 0 0 1 417.86328 778.63672 A 177.6378 177.6378 0 0 1 386.33008 769.07227 A 177.6378 177.6378 0 0 1 384.5293 768.28711 A 177.6378 177.6378 0 0 1 355.50977 752.77539 A 177.6378 177.6378 0 0 1 354.5332 752.16211 A 177.6378 177.6378 0 0 1 328.91992 731.14258 A 177.6378 177.6378 0 0 1 327.125 729.34961 A 177.6378 177.6378 0 0 1 306.11719 703.75 A 177.6378 177.6378 0 0 1 305.47461 702.72852 A 177.6378 177.6378 0 0 1 289.97852 673.73828 A 177.6378 177.6378 0 0 1 289.19336 671.9375 A 177.6378 177.6378 0 0 1 279.63086 640.41211 A 177.6378 177.6378 0 0 1 279.18945 638.08203 A 177.6378 177.6378 0 0 1 275.9043 604.72461 L 75.589844 604.72461 z M 192.75586 641.76367 A 7.5590547 7.5590547 0 0 1 200.31445 649.32227 A 7.5590547 7.5590547 0 0 1 192.75586 656.88281 A 7.5590547 7.5590547 0 0 1 185.19727 649.32227 A 7.5590547 7.5590547 0 0 1 192.75586 641.76367 z M 714.33008 641.76367 A 7.5590547 7.5590547 0 0 1 721.89062 649.32227 A 7.5590547 7.5590547 0 0 1 714.33008 656.88281 A 7.5590547 7.5590547 0 0 1 706.77148 649.32227 A 7.5590547 7.5590547 0 0 1 714.33008 641.76367 z M 280.0625 695.43164 A 9.4488163 9.4488163 0 0 1 289.51172 704.88086 A 9.4488163 9.4488163 0 0 1 280.0625 714.33008 A 9.4488163 9.4488163 0 0 1 270.61328 704.88086 A 9.4488163 9.4488163 0 0 1 280.0625 695.43164 z M 627.02344 695.43164 A 9.4488163 9.4488163 0 0 1 636.47266 704.88086 A 9.4488163 9.4488163 0 0 1 627.02344 714.33008 A 9.4488163 9.4488163 0 0 1 617.57422 704.88086 A 9.4488163 9.4488163 0 0 1 627.02344 695.43164 z M 192.75586 717.35547 A 7.5590547 7.5590547 0 0 1 200.31445 724.91406 A 7.5590547 7.5590547 0 0 1 192.75586 732.47266 A 7.5590547 7.5590547 0 0 1 185.19727 724.91406 A 7.5590547 7.5590547 0 0 1 192.75586 717.35547 z M 714.33008 717.35547 A 7.5590551 7.5590551 0 0 1 721.89062 724.91406 A 7.5590551 7.5590551 0 0 1 714.33008 732.47266 A 7.5590551 7.5590551 0 0 1 706.77148 724.91406 A 7.5590551 7.5590551 0 0 1 714.33008 717.35547 z M 453.54297 854.17383 A 15.11811 15.11811 0 0 1 468.66211 869.29102 A 15.11811 15.11811 0 0 1 453.54297 884.41016 A 15.11811 15.11811 0 0 1 438.42578 869.29102 A 15.11811 15.11811 0 0 1 453.54297 854.17383 z M 113.38477 1111.1816 L 188.97461 1111.1816 L 188.97461 1133.8594 L 113.38477 1133.8594 L 113.38477 1111.1816 z M 264.56641 1111.1816 L 340.15625 1111.1816 L 340.15625 1133.8594 L 264.56641 1133.8594 L 264.56641 1111.1816 z M 415.74609 1111.1816 L 491.33789 1111.1816 L 491.33789 1133.8594 L 415.74609 1133.8594 L 415.74609 1111.1816 z M 566.92773 1111.1816 L 642.51953 1111.1816 L 642.51953 1133.8594 L 566.92773 1133.8594 L 566.92773 1111.1816 z M 718.10938 1111.1816 L 793.69922 1111.1816 L 793.69922 1133.8594 L 718.10938 1133.8594 L 718.10938 1111.1816 z M 113.38477 1179.2129 L 136.0625 1179.2129 L 136.0625 1254.8027 L 113.38477 1254.8027 L 113.38477 1179.2129 z M 771.02344 1179.2129 L 793.69922 1179.2129 L 793.69922 1254.8027 L 771.02344 1254.8027 L 771.02344 1179.2129 z M 226.77148 1205.6699 A 11.338583 11.338583 0 0 1 238.10938 1217.0078 A 11.338583 11.338583 0 0 1 226.77148 1228.3457 A 11.338583 11.338583 0 0 1 215.43164 1217.0078 A 11.338583 11.338583 0 0 1 226.77148 1205.6699 z M 680.31445 1205.6699 A 11.338583 11.338583 0 0 1 691.65234 1217.0078 A 11.338583 11.338583 0 0 1 680.31445 1228.3457 A 11.338583 11.338583 0 0 1 668.97461 1217.0078 A 11.338583 11.338583 0 0 1 680.31445 1205.6699 z M 113.38477 1300.1582 L 188.97461 1300.1582 L 188.97461 1322.8359 L 113.38477 1322.8359 L 113.38477 1300.1582 z M 264.56641 1300.1582 L 340.15625 1300.1582 L 340.15625 1322.8359 L 264.56641 1322.8359 L 264.56641 1300.1582 z M 415.74609 1300.1582 L 491.33789 1300.1582 L 491.33789 1322.8359 L 415.74609 1322.8359 L 415.74609 1300.1582 z M 566.92773 1300.1582 L 642.51953 1300.1582 L 642.51953 1322.8359 L 566.92773 1322.8359 L 566.92773 1300.1582 z M 718.10938 1300.1582 L 793.69922 1300.1582 L 793.69922 1322.8359 L 718.10938 1322.8359 L 718.10938 1300.1582 z "
       transform="scale(0.26458333)" />
    <path
       id="path4607"
       style="fill:#800000;stroke:#00ff00;stroke-width:0"
       d="M 1504.252 128.50391 L 1504.252 151.17969 L 907.08594 151.17969 L 907.08594 196.53516 L 884.41016 196.53516 L 884.41016 272.125 L 907.08594 272.125 L 907.08594 317.48047 L 1504.252 317.48047 L 1504.252 340.15625 L 1579.8418 340.15625 L 1579.8418 317.48047 L 2177.0078 317.48047 L 2177.0078 272.125 L 2199.6855 272.125 L 2199.6855 196.53516 L 2177.0078 196.53516 L 2177.0078 151.17969 L 1579.8418 151.17969 L 1579.8418 128.50391 L 1504.252 128.50391 z M 1020.4727 196.53516 A 37.795276 37.795276 0 0 1 1058.2676 234.33008 A 37.795276 37.795276 0 0 1 1020.4727 272.12695 A 37.795276 37.795276 0 0 1 982.67773 234.33008 A 37.795276 37.795276 0 0 1 1020.4727 196.53516 z M 2063.6211 196.53516 A 37.795276 37.795276 0 0 1 2101.418 234.33008 A 37.795276 37.795276 0 0 1 2063.6211 272.12695 A 37.795276 37.795276 0 0 1 2025.8262 234.33008 A 37.795276 37.795276 0 0 1 2063.6211 196.53516 z "
       transform="scale(0.26458333)" />
    <path
       id="rect4649"
       style="fill:#800000;stroke:#00ff00;stroke-width:0"
       d="m 239.99963,114 v 9.9999 H 234 v 19.99981 h 5.99963 v 20.00033 H 234 v 19.99981 h 5.99963 v 19.99982 H 234 V 224 h 5.99963 v 19.99982 H 234 v 19.9998 h 5.99963 v 20.00033 H 234 v 19.99982 h 5.99963 v 9.9999 h 336.00016 v -9.9999 h 6.00014 v -19.99982 h -6.00014 v -20.00033 h 6.00014 v -19.9998 h -6.00014 V 224 h 6.00014 v -20.00033 h -6.00014 v -19.99982 h 6.00014 v -19.99981 h -6.00014 v -20.00033 h 6.00014 V 123.9999 h -6.00014 V 114 Z m 158.00019,9.9999 h 19.9998 v 6.00015 h -19.9998 z m 0,173.99971 h 19.9998 v 6.00016 h -19.9998 z" />
    <text
       xml:space="preserve"
       style="font-size:3.175px;line-height:1.25;font-family:sans-serif;stroke-width:0.264583"
       x="19.79071"
       y="152.41226"
       id="text13626"><tspan
         sodipodi:role="line"
         id="tspan13624"
         style="stroke-width:0.264583"
         x="19.79071"
         y="152.41226">Sidepanel (2x)</tspan></text>
    <text
       xml:space="preserve"
       style="font-style:normal;font-variant:normal;font-weight:normal;font-stretch:normal;font-size:4.93889px;line-height:1.25;font-family:sans-serif;-inkscape-font-specification:sans-serif;letter-spacing:0px;fill:#000000;fill-opacity:1;stroke:none;stroke-width:0.264583"
       x="19.767456"
       y="393.21634"
       id="text7311"><tspan
         sodipodi:role="line"
         style="font-style:normal;font-variant:normal;font-weight:bold;font-stretch:normal;font-size:4.23333px;font-family:sans-serif;-inkscape-font-specification:'sans-serif Bold';stroke-width:0.264583"
         x="19.767456"
         y="393.21634"
         id="tspan24361">Drum Carder</tspan><tspan
         sodipodi:role="line"
         style="font-style:normal;font-variant:normal;font-weight:normal;font-stretch:normal;font-size:3.175px;font-family:sans-serif;-inkscape-font-specification:sans-serif;stroke-width:0.264583"
         x="19.767456"
         y="399.38995"
         id="tspan42755">Stand for 200mm drum - 6mm plywood (birch or poplar) - 20230705</tspan></text>
    <text
       xml:space="preserve"
       style="font-size:3.175px;line-height:1.25;font-family:sans-serif;stroke-width:0.264583"
       x="239.68839"
       y="22.412256"
       id="text30790"><tspan
         sodipodi:role="line"
         id="tspan30788"
         style="stroke-width:0.264583"
         x="239.68839"
         y="22.412256">Front/back (2x)</tspan></text>
    <text
       xml:space="preserve"
       style="font-size:3.175px;line-height:1.25;font-family:sans-serif;stroke-width:0.264583"
       x="239.79071"
       y="102.41225"
       id="text36926"><tspan
         sodipodi:role="line"
         id="tspan36924"
         style="stroke-width:0.264583"
         x="239.79071"
         y="102.41225">Top/bottom (2x)</tspan></text>
    <text
       xml:space="preserve"
       style="font-size:3.175px;line-height:1.25;font-family:sans-serif;stroke-width:0.264583"
       x="233.68839"
       y="332.41226"
       id="text36926-3"><tspan
         sodipodi:role="line"
         id="tspan36924-6"
         style="stroke-width:0.264583"
         x="233.68839"
         y="332.41226">Bar stand (2x)</tspan></text>
    <text
       xml:space="preserve"
       transform="scale(0.26458333)"
       id="text47912"
       style="line-height:1.25;font-family:sans-serif;font-size:12px;white-space:pre;shape-inside:url(#rect47914)" />
    <path
       id="path944"
       style="fill:#800000;stroke:#ff0000;stroke-width:0"
       d="M 453.54297 113.38672 A 377.95276 377.95276 0 0 0 75.589844 491.33789 L 275.90625 491.33789 A 177.6378 177.6378 0 0 1 453.54297 313.70117 A 177.6378 177.6378 0 0 1 631.18164 491.33789 L 831.49609 491.33789 A 377.95276 377.95276 0 0 0 453.54297 113.38672 z M 283.46484 234.33008 A 7.5590523 7.5590528 0 0 1 291.02344 241.89062 A 7.5590523 7.5590528 0 0 1 283.46484 249.44922 A 7.5590523 7.5590528 0 0 1 275.90625 241.89062 A 7.5590523 7.5590528 0 0 1 283.46484 234.33008 z M 623.62109 234.33008 A 7.5590523 7.5590528 0 0 1 631.18164 241.89062 A 7.5590523 7.5590528 0 0 1 623.62109 249.44922 A 7.5590523 7.5590528 0 0 1 616.0625 241.89062 A 7.5590523 7.5590528 0 0 1 623.62109 234.33008 z M 453.54297 281.57422 A 9.4488178 9.4488178 0 0 1 462.99219 291.02344 A 9.4488178 9.4488178 0 0 1 453.54297 300.47266 A 9.4488178 9.4488178 0 0 1 444.09375 291.02344 A 9.4488178 9.4488178 0 0 1 453.54297 281.57422 z M 192.75586 325.03906 A 7.5590523 7.5590528 0 0 1 200.31445 332.59766 A 7.5590523 7.5590528 0 0 1 192.75586 340.1582 A 7.5590523 7.5590528 0 0 1 185.19727 332.59766 A 7.5590523 7.5590528 0 0 1 192.75586 325.03906 z M 714.33008 325.03906 A 7.5590523 7.5590528 0 0 1 721.89062 332.59766 A 7.5590523 7.5590528 0 0 1 714.33008 340.1582 A 7.5590523 7.5590528 0 0 1 706.77148 332.59766 A 7.5590523 7.5590528 0 0 1 714.33008 325.03906 z M 192.75586 415.74805 A 7.5590547 7.5590547 0 0 1 200.31445 423.30664 L 200.31445 453.54297 A 7.5590547 7.5590547 0 0 1 192.75586 461.10156 A 7.5590547 7.5590547 0 0 1 185.19727 453.54297 L 185.19727 423.30664 A 7.5590547 7.5590547 0 0 1 192.75586 415.74805 z M 714.33008 415.74805 A 7.5590547 7.5590547 0 0 1 721.88867 423.30664 L 721.88867 453.54297 A 7.5590547 7.5590547 0 0 1 714.33008 461.10156 A 7.5590547 7.5590547 0 0 1 706.77148 453.54297 L 706.77148 423.30664 A 7.5590547 7.5590547 0 0 1 714.33008 415.74805 z "
       transform="scale(0.26458333)" />
    <text
       xml:space="preserve"
       style="font-size:3.175px;line-height:1.25;font-family:sans-serif;stroke-width:0.264583"
       x="19.79071"
       y="22.412256"
       id="text13785"><tspan
         sodipodi:role="line"
         id="tspan13783"
         style="stroke-width:0.264583"
         x="19.79071"
         y="22.412256">Sidepanel top (2x)</tspan></text>
    <path
       id="rect18597"
       style="fill:#800000;stroke:#ff0000;stroke-width:0"
       d="M 119.9999,120 A 10,10 0 0 0 110,129.99991 v 50.00005 a 10,10 0 0 0 9.9999,9.9999 10,10 0 0 0 10.00043,-9.9999 V 129.99991 A 10,10 0 0 0 119.9999,120 Z m 0,8.00003 a 1.9999994,1.9999994 0 0 1 2.0004,1.99988 v 8.00003 a 1.9999994,1.9999994 0 0 1 -2.0004,1.99987 1.9999994,1.9999994 0 0 1 -1.99987,-1.99987 v -8.00003 a 1.9999994,1.9999994 0 0 1 1.99987,-1.99988 z m 0,29.99972 a 1.9999995,1.9999995 0 0 1 2.0004,1.99988 1.9999995,1.9999995 0 0 1 -2.0004,2.00039 1.9999995,1.9999995 0 0 1 -1.99987,-2.00039 1.9999995,1.9999995 0 0 1 1.99987,-1.99988 z m 0,20.00033 a 1.9999995,1.9999995 0 0 1 2.0004,1.99988 1.9999995,1.9999995 0 0 1 -2.0004,1.99988 1.9999995,1.9999995 0 0 1 -1.99987,-1.99988 1.9999995,1.9999995 0 0 1 1.99987,-1.99988 z" />
    <text
       xml:space="preserve"
       style="font-size:3.175px;line-height:1.25;font-family:sans-serif;stroke-width:0.264583"
       x="109.79071"
       y="112.41225"
       id="text21341"><tspan
         sodipodi:role="line"
         id="tspan21339"
         style="stroke-width:0.264583"
         x="109.79071"
         y="112.41225">Sidepanel mount (4x)</tspan></text>
  </g>
</svg>
