<?xml version="1.0" encoding="UTF-8" standalone="no"?>
<!-- Created with Inkscape (http://www.inkscape.org/) -->

<svg
   width="594mm"
   height="420mm"
   viewBox="0 0 594 420"
   version="1.1"
   id="svg5"
   inkscape:version="1.1.2 (0a00cf5339, 2022-02-04)"
   sodipodi:docname="feeder-table.svg"
   xmlns:inkscape="http://www.inkscape.org/namespaces/inkscape"
   xmlns:sodipodi="http://sodipodi.sourceforge.net/DTD/sodipodi-0.dtd"
   xmlns="http://www.w3.org/2000/svg"
   xmlns:svg="http://www.w3.org/2000/svg">
  <sodipodi:namedview
     id="namedview7"
     pagecolor="#ffffff"
     bordercolor="#666666"
     borderopacity="1.0"
     inkscape:pageshadow="2"
     inkscape:pageopacity="0.0"
     inkscape:pagecheckerboard="0"
     inkscape:document-units="mm"
     showgrid="false"
     inkscape:zoom="0.34076865"
     inkscape:cx="1257.4514"
     inkscape:cy="893.56813"
     inkscape:window-width="1882"
     inkscape:window-height="1016"
     inkscape:window-x="38"
     inkscape:window-y="27"
     inkscape:window-maximized="1"
     inkscape:current-layer="layer1" />
  <defs
     id="defs2">
    <rect
       x="45.230719"
       y="1356.6273"
       width="298.14892"
       height="152.48577"
       id="rect47914" />
  </defs>
  <g
     inkscape:label="Layer 1"
     inkscape:groupmode="layer"
     id="layer1">
    <path
       id="rect846"
       style="fill:#800000;stroke:#00ff00;stroke-width:0"
       d="m 19.999813,30 v 59.999953 31.673007 8.32714 59.99995 19.99982 19.9998 H 100.00061 L 219.99949,106.00053 V 89.999953 80.000048 L 100.0001,30 Z m 10.000423,59.999953 h 19.999812 v 6.000152 H 30.000236 Z m 40.000142,0 h 19.999811 v 6.000152 H 70.000378 Z m 39.999622,0 h 20.00033 v 6.000152 H 110 Z m 40.00015,0 h 20.00032 v 6.000152 h -20.00032 z m 40.00014,0 h 19.99981 v 6.000152 H 190.00029 Z M 29.99972,164.00008 h 19.999812 v 6.00016 H 29.99972 Z m 40.000142,0 h 19.999811 v 6.00016 H 69.999862 Z M 29.99972,182.00002 h 6.000149 v 19.99981 H 29.99972 Z m 54.00032,0 h 6.000149 v 19.99981 H 84.00004 Z m -24.000087,7.00009 a 3,3 0 0 1 2.99982,2.99982 3,3 0 0 1 -2.99982,2.99981 3,3 0 0 1 -3.000332,-2.99981 3,3 0 0 1 3.000332,-2.99982 z M 29.99972,214.00014 h 19.999812 v 6.00014 H 29.99972 Z m 40.000142,0 h 19.999811 v 6.00014 H 69.999862 Z" />
    <path
       id="rect4649"
       style="fill:#800000;stroke:#00ff00;stroke-width:0"
       d="m 239.99963,190 v 9.99991 H 234 v 19.99981 h 5.99963 v 20.00033 H 234 v 19.99981 h 5.99963 v 19.99981 H 234 V 300 h 5.99963 v 19.99981 H 234 v 19.99982 h 5.99963 v 20.00033 H 234 v 19.99981 h 5.99963 v 9.9999 h 336.00016 v -9.9999 h 6.00014 v -19.99981 h -6.00014 v -20.00033 h 6.00014 v -19.99982 h -6.00014 V 300 h 6.00014 v -20.00033 h -6.00014 v -19.99981 h 6.00014 v -19.99981 h -6.00014 v -20.00033 h 6.00014 v -19.99981 h -6.00014 V 190 Z" />
    <text
       xml:space="preserve"
       style="font-size:3.175px;line-height:1.25;font-family:sans-serif;stroke-width:0.264583"
       x="19.79071"
       y="22.412256"
       id="text13626"><tspan
         sodipodi:role="line"
         id="tspan13624"
         style="stroke-width:0.264583"
         x="19.79071"
         y="22.412256">Sidepanel (2x)</tspan></text>
    <text
       xml:space="preserve"
       style="font-style:normal;font-variant:normal;font-weight:normal;font-stretch:normal;font-size:4.93889px;line-height:1.25;font-family:sans-serif;-inkscape-font-specification:sans-serif;letter-spacing:0px;fill:#000000;fill-opacity:1;stroke:none;stroke-width:0.264583"
       x="19.767456"
       y="393.21634"
       id="text7311"><tspan
         sodipodi:role="line"
         style="font-style:normal;font-variant:normal;font-weight:bold;font-stretch:normal;font-size:4.23333px;font-family:sans-serif;-inkscape-font-specification:'sans-serif Bold';stroke-width:0.264583"
         x="19.767456"
         y="393.21634"
         id="tspan24361">Drum Carder</tspan><tspan
         sodipodi:role="line"
         style="font-style:normal;font-variant:normal;font-weight:normal;font-stretch:normal;font-size:3.175px;font-family:sans-serif;-inkscape-font-specification:sans-serif;stroke-width:0.264583"
         x="19.767456"
         y="399.38995"
         id="tspan42755">Feeder table - 6mm plywood (birch or poplar) - 20230523</tspan></text>
    <text
       xml:space="preserve"
       style="font-size:3.175px;line-height:1.25;font-family:sans-serif;stroke-width:0.264583"
       x="239.68839"
       y="22.412256"
       id="text30790"><tspan
         sodipodi:role="line"
         id="tspan30788"
         style="stroke-width:0.264583"
         x="239.68839"
         y="22.412256">Front/back (2x)</tspan></text>
    <text
       xml:space="preserve"
       style="font-size:3.175px;line-height:1.25;font-family:sans-serif;stroke-width:0.264583"
       x="240.00931"
       y="182.41226"
       id="text36926"><tspan
         sodipodi:role="line"
         id="tspan36924"
         style="stroke-width:0.264583"
         x="240.00931"
         y="182.41226">Table top</tspan></text>
    <text
       xml:space="preserve"
       transform="scale(0.26458333)"
       id="text47912"
       style="line-height:1.25;font-family:sans-serif;font-size:12px;white-space:pre;shape-inside:url(#rect47914)" />
    <path
       id="rect4649-5"
       style="fill:#800000;stroke:#00ff00;stroke-width:0"
       d="m 235.99963,90.000007 v 9.99991 H 230 v 19.999813 h 5.99963 v 20.00033 H 230 v 19.99981 h 5.99963 v 10.00042 h 336.00015 v -10.00042 h 6.00015 v -19.99981 h -6.00015 v -20.00033 h 6.00015 V 99.999917 h -6.00015 v -9.99991 z m 158.00018,9.99991 h 19.9998 v 6.000153 h -19.9998 z m 0,54.000323 h 19.9998 v 6.00015 h -19.9998 z" />
    <text
       xml:space="preserve"
       style="font-size:3.175px;line-height:1.25;font-family:sans-serif;stroke-width:0.264583"
       x="235.79053"
       y="82.412254"
       id="text36926-7"><tspan
         sodipodi:role="line"
         id="tspan36924-4"
         style="stroke-width:0.264583"
         x="235.79053"
         y="82.412254">Top/bottom (2x)</tspan></text>
    <path
       id="path4607"
       style="fill:#800000;stroke:#00ff00;stroke-width:0"
       d="m 393.99981,20 v 5.999634 H 235.99963 V 37.999935 H 230 v 19.999812 h 5.99963 V 70.00005 h 158.00018 v 5.999632 h 19.9998 V 70.00005 H 571.99978 V 57.999747 h 6.00014 V 37.999935 h -6.00014 V 25.999634 H 413.99961 V 20 Z M 265.99988,37.999935 a 10,10 0 0 1 9.9999,9.999907 10,10 0 0 1 -9.9999,10.000422 10,10 0 0 1 -9.99992,-10.000422 10,10 0 0 1 9.99992,-9.999907 z m 275.99967,0 a 10,10 0 0 1 10.00043,9.999907 10,10 0 0 1 -10.00043,10.000422 10,10 0 0 1 -9.9999,-10.000422 10,10 0 0 1 9.9999,-9.999907 z" />
  </g>
</svg>
