<?xml version="1.0" encoding="UTF-8" standalone="no"?>
<!-- Created with Inkscape (http://www.inkscape.org/) -->

<svg
   width="594mm"
   height="420mm"
   viewBox="0 0 594 420"
   version="1.1"
   id="svg5"
   inkscape:version="1.2.2 (b0a8486541, 2022-12-01)"
   sodipodi:docname="licker-75mm.svg"
   xmlns:inkscape="http://www.inkscape.org/namespaces/inkscape"
   xmlns:sodipodi="http://sodipodi.sourceforge.net/DTD/sodipodi-0.dtd"
   xmlns="http://www.w3.org/2000/svg"
   xmlns:svg="http://www.w3.org/2000/svg">
  <sodipodi:namedview
     id="namedview7"
     pagecolor="#ffffff"
     bordercolor="#666666"
     borderopacity="1.0"
     inkscape:pageshadow="2"
     inkscape:pageopacity="0.0"
     inkscape:pagecheckerboard="0"
     inkscape:document-units="mm"
     showgrid="false"
     inkscape:zoom="1.4142136"
     inkscape:cx="311.48053"
     inkscape:cy="1417.042"
     inkscape:window-width="1443"
     inkscape:window-height="983"
     inkscape:window-x="38"
     inkscape:window-y="27"
     inkscape:window-maximized="0"
     inkscape:current-layer="layer1"
     inkscape:showpageshadow="2"
     inkscape:deskcolor="#d1d1d1" />
  <defs
     id="defs2" />
  <g
     inkscape:label="Layer 1"
     inkscape:groupmode="layer"
     id="layer1">
    <path
       id="rect2103"
       style="fill:#800000;stroke:#00ff00;stroke-width:0"
       d="m 20,120 v 30.00023 H 340.00012 V 120 Z m 10.00043,9.99991 h 5.99963 v 9.9999 h -5.99963 z m 146.99981,0 h 6.00015 v 9.9999 h -6.00015 z m 146.99981,0 h 6.00014 v 9.9999 h -6.00014 z m -275.999689,4.00027 a 1,1 0 0 1 0.99994,0.99994 1,1 0 0 1 -0.99994,0.99993 1,1 0 0 1 -0.99994,-0.99993 1,1 0 0 1 0.99994,-0.99994 z m 24.000089,0 a 1,1 0 0 1 0.99994,0.99994 1,1 0 0 1 -0.99994,0.99993 1,1 0 0 1 -1.00046,-0.99993 1,1 0 0 1 1.00046,-0.99994 z m 23.999561,0 a 1,1 0 0 1 0.999939,0.99994 1,1 0 0 1 -0.999939,0.99993 1,1 0 0 1 -0.999931,-0.99993 1,1 0 0 1 0.999931,-0.99994 z m 24.000089,0 a 1,1 0 0 1 0.99994,0.99994 1,1 0 0 1 -0.99994,0.99993 1,1 0 0 1 -0.99994,-0.99993 1,1 0 0 1 0.99994,-0.99994 z m 24.00008,0 a 1,1 0 0 1 0.99994,0.99994 1,1 0 0 1 -0.99994,0.99993 1,1 0 0 1 -0.99993,-0.99993 1,1 0 0 1 0.99993,-0.99994 z m 24.00009,0 a 1,1 0 0 1 0.99994,0.99994 1,1 0 0 1 -0.99994,0.99993 1,1 0 0 1 -0.99994,-0.99993 1,1 0 0 1 0.99994,-0.99994 z m 24.00008,0 a 1,1 0 0 1 0.99994,0.99994 1,1 0 0 1 -0.99994,0.99993 1,1 0 0 1 -0.99994,-0.99993 1,1 0 0 1 0.99994,-0.99994 z m 24.00009,0 a 1,1 0 0 1 0.99994,0.99994 1,1 0 0 1 -0.99994,0.99993 1,1 0 0 1 -1.00045,-0.99993 1,1 0 0 1 1.00045,-0.99994 z m 23.99957,0 a 1,1 0 0 1 0.99994,0.99994 1,1 0 0 1 -0.99994,0.99993 1,1 0 0 1 -0.99994,-0.99993 1,1 0 0 1 0.99994,-0.99994 z m 24.00008,0 a 1,1 0 0 1 0.99994,0.99994 1,1 0 0 1 -0.99994,0.99993 1,1 0 0 1 -0.99994,-0.99993 1,1 0 0 1 0.99994,-0.99994 z m 24.00009,0 a 1,1 0 0 1 0.99994,0.99994 1,1 0 0 1 -0.99994,0.99993 1,1 0 0 1 -0.99994,-0.99993 1,1 0 0 1 0.99994,-0.99994 z m 24.00009,0 a 1,1 0 0 1 0.99994,0.99994 1,1 0 0 1 -0.99994,0.99993 1,1 0 0 1 -0.99994,-0.99993 1,1 0 0 1 0.99994,-0.99994 z" />
    <text
       xml:space="preserve"
       style="font-style:normal;font-variant:normal;font-weight:normal;font-stretch:normal;font-size:4.93889px;line-height:1.25;font-family:sans-serif;-inkscape-font-specification:sans-serif;letter-spacing:0px;fill:#800080;fill-opacity:1;stroke:none;stroke-width:0.264583"
       x="19.767456"
       y="405.2164"
       id="text7311"><tspan
         sodipodi:role="line"
         style="font-style:normal;font-variant:normal;font-weight:bold;font-stretch:normal;font-size:4.23333px;font-family:sans-serif;-inkscape-font-specification:'sans-serif Bold';fill:#800080;stroke-width:0.264583"
         x="19.767456"
         y="405.2164"
         id="tspan24361">Drum Carder</tspan><tspan
         sodipodi:role="line"
         style="font-style:normal;font-variant:normal;font-weight:normal;font-stretch:normal;font-size:3.175px;font-family:sans-serif;-inkscape-font-specification:sans-serif;fill:#800080;stroke-width:0.264583"
         x="19.767456"
         y="411.39001"
         id="tspan42755">75mm licker - 6mm plywood (birch or poplar) - 20230709</tspan></text>
    <text
       xml:space="preserve"
       style="font-style:normal;font-weight:normal;font-size:3.175px;line-height:1.25;font-family:sans-serif;fill:#000000;fill-opacity:1;stroke:none;stroke-width:0.264583"
       x="19.688391"
       y="112.41225"
       id="text58285"><tspan
         sodipodi:role="line"
         style="font-size:3.175px;fill:#000000;stroke-width:0.264583"
         x="19.688391"
         y="112.41225"
         id="tspan2015">Infill rib (2x)</tspan></text>
    <path
       id="path15645"
       style="fill:#800000;stroke:#ff0000;stroke-width:0"
       d="M 147.40234 126.60156 A 128.50394 128.50394 0 0 0 75.589844 241.89062 A 128.50394 128.50394 0 0 0 147.40234 357.17773 L 147.40234 334.48828 L 185.19727 334.48828 L 185.19727 357.16602 L 222.99219 357.16602 L 222.99219 334.48828 L 260.78711 334.48828 L 260.78711 357.17773 A 128.50394 128.50394 0 0 0 332.59766 241.89062 A 128.50394 128.50394 0 0 0 260.78711 126.60156 L 260.78711 149.29102 L 222.99219 149.29102 L 222.99219 126.61328 L 185.19727 126.61328 L 185.19727 149.29102 L 147.40234 149.29102 L 147.40234 126.60156 z M 204.09375 188.97656 A 7.5590541 7.5590537 0 0 1 211.6543 196.53516 A 7.5590541 7.5590537 0 0 1 204.09375 204.09375 A 7.5590541 7.5590537 0 0 1 196.53516 196.53516 A 7.5590541 7.5590537 0 0 1 204.09375 188.97656 z M 204.09375 226.77148 A 15.11811 15.11811 0 0 1 219.21289 241.89062 A 15.11811 15.11811 0 0 1 204.09375 257.00781 A 15.11811 15.11811 0 0 1 188.97656 241.89062 A 15.11811 15.11811 0 0 1 204.09375 226.77148 z M 113.38672 234.33008 A 7.5590541 7.5590537 0 0 1 120.94531 241.89062 A 7.5590541 7.5590537 0 0 1 113.38672 249.44922 A 7.5590541 7.5590537 0 0 1 105.82617 241.89062 A 7.5590541 7.5590537 0 0 1 113.38672 234.33008 z M 158.74023 234.33008 A 7.5590541 7.5590537 0 0 1 166.29883 241.89062 A 7.5590541 7.5590537 0 0 1 158.74023 249.44922 A 7.5590541 7.5590537 0 0 1 151.18164 241.89062 A 7.5590541 7.5590537 0 0 1 158.74023 234.33008 z M 249.44922 234.33008 A 7.5590541 7.5590537 0 0 1 257.00781 241.89062 A 7.5590541 7.5590537 0 0 1 249.44922 249.44922 A 7.5590541 7.5590537 0 0 1 241.89062 241.89062 A 7.5590541 7.5590537 0 0 1 249.44922 234.33008 z M 294.42578 234.33008 A 7.5590541 7.5590537 0 0 1 301.98438 241.89062 A 7.5590541 7.5590537 0 0 1 294.42578 249.44922 A 7.5590541 7.5590537 0 0 1 286.86523 241.89062 A 7.5590541 7.5590537 0 0 1 294.42578 234.33008 z M 204.09375 279.68555 A 7.5590541 7.5590537 0 0 1 211.6543 287.24414 A 7.5590541 7.5590537 0 0 1 204.09375 294.80273 A 7.5590541 7.5590537 0 0 1 196.53516 287.24414 A 7.5590541 7.5590537 0 0 1 204.09375 279.68555 z "
       transform="scale(0.26458333)" />
    <text
       xml:space="preserve"
       style="font-style:normal;font-weight:normal;font-size:3.175px;line-height:1.25;font-family:sans-serif;fill:#000000;fill-opacity:1;stroke:none;stroke-width:0.264583"
       x="19.688391"
       y="22.412256"
       id="text16356"><tspan
         sodipodi:role="line"
         style="font-size:3.175px;fill:#000000;stroke-width:0.264583;stroke:none"
         x="19.688391"
         y="22.412256"
         id="tspan16354">Infill disc (3x)</tspan></text>
    <path
       id="path852-3"
       style="fill:#800000;stroke-width:0"
       d="M 80.99989,220.00001 A 61,61 0 0 0 20,280.9999 61,61 0 0 0 80.99989,341.9998 61,61 0 0 0 142.00031,280.9999 61,61 0 0 0 80.99989,220.00001 Z m 0,22.99963 a 1.9999999,1.9999999 0 0 1 1.99988,1.99988 1.9999999,1.9999999 0 0 1 -1.99988,1.99987 1.9999999,1.9999999 0 0 1 -1.99987,-1.99987 1.9999999,1.9999999 0 0 1 1.99987,-1.99988 z m 0,11.99978 a 1.9999999,1.9999999 0 0 1 1.99988,1.99988 1.9999999,1.9999999 0 0 1 -1.99988,2.00039 1.9999999,1.9999999 0 0 1 -1.99987,-2.00039 1.9999999,1.9999999 0 0 1 1.99987,-1.99988 z m 0,12.0003 a 1.9999999,1.9999999 0 0 1 1.99988,1.99988 1.9999999,1.9999999 0 0 1 -1.99988,1.99988 1.9999999,1.9999999 0 0 1 -1.99987,-1.99988 1.9999999,1.9999999 0 0 1 1.99987,-1.99988 z m 0,9.99991 a 3.9999999,3.9999999 0 0 1 3.99976,3.99976 3.9999999,3.9999999 0 0 1 -3.99976,4.00027 3.9999999,3.9999999 0 0 1 -4.00027,-4.00027 3.9999999,3.9999999 0 0 1 4.00027,-3.99976 z m -35.99987,1.99988 a 1.9999999,1.9999999 0 0 1 1.99988,1.99988 1.9999999,1.9999999 0 0 1 -1.99988,2.00039 1.9999999,1.9999999 0 0 1 -2.00039,-2.00039 1.9999999,1.9999999 0 0 1 2.00039,-1.99988 z m 11.99979,0 a 1.9999999,1.9999999 0 0 1 1.99988,1.99988 1.9999999,1.9999999 0 0 1 -1.99988,2.00039 1.9999999,1.9999999 0 0 1 -1.99988,-2.00039 1.9999999,1.9999999 0 0 1 1.99988,-1.99988 z m 11.99978,0 a 1.9999999,1.9999999 0 0 1 2.0004,1.99988 1.9999999,1.9999999 0 0 1 -2.0004,2.00039 1.9999999,1.9999999 0 0 1 -1.99987,-2.00039 1.9999999,1.9999999 0 0 1 1.99987,-1.99988 z m 24.00009,0 a 1.9999999,1.9999999 0 0 1 2.00039,1.99988 1.9999999,1.9999999 0 0 1 -2.00039,2.00039 1.9999999,1.9999999 0 0 1 -1.99988,-2.00039 1.9999999,1.9999999 0 0 1 1.99988,-1.99988 z m 12.0003,0 a 1.9999999,1.9999999 0 0 1 1.99988,1.99988 1.9999999,1.9999999 0 0 1 -1.99988,2.00039 1.9999999,1.9999999 0 0 1 -2.00039,-2.00039 1.9999999,1.9999999 0 0 1 2.00039,-1.99988 z m 11.99978,0 a 1.9999999,1.9999999 0 0 1 1.99988,1.99988 1.9999999,1.9999999 0 0 1 -1.99988,2.00039 1.9999999,1.9999999 0 0 1 -1.99987,-2.00039 1.9999999,1.9999999 0 0 1 1.99987,-1.99988 z m -35.99987,11.99978 a 1.9999999,1.9999999 0 0 1 1.99988,2.0004 1.9999999,1.9999999 0 0 1 -1.99988,1.99987 1.9999999,1.9999999 0 0 1 -1.99987,-1.99987 1.9999999,1.9999999 0 0 1 1.99987,-2.0004 z m 0,12.0003 a 1.9999999,1.9999999 0 0 1 1.99988,1.99988 1.9999999,1.9999999 0 0 1 -1.99988,1.99988 1.9999999,1.9999999 0 0 1 -1.99987,-1.99988 1.9999999,1.9999999 0 0 1 1.99987,-1.99988 z m 0,11.99979 a 1.9999999,1.9999999 0 0 1 1.99988,2.00039 1.9999999,1.9999999 0 0 1 -1.99988,1.99988 1.9999999,1.9999999 0 0 1 -1.99987,-1.99988 1.9999999,1.9999999 0 0 1 1.99987,-2.00039 z" />
    <text
       xml:space="preserve"
       style="font-style:normal;font-weight:normal;font-size:3.175px;line-height:1.25;font-family:sans-serif;fill:#000000;fill-opacity:1;stroke:none;stroke-width:0.264583"
       x="19.688391"
       y="212.41226"
       id="text1212-6"><tspan
         sodipodi:role="line"
         style="font-size:3.175px;fill:#000000;stroke:none;stroke-width:0.264583"
         x="19.688391"
         y="212.41226"
         id="tspan1210-7">Pulley cap 120mm (2x)</tspan></text>
    <path
       id="rect2103-3"
       style="fill:#800000;stroke:#00ff00;stroke-width:0"
       d="m 20.000005,179.99999 v 19.99982 H 340.00011 v -19.99982 z m 28.00036,8.00003 a 1.999999,1.9999993 0 0 1 1.999879,1.99988 1.999999,1.9999993 0 0 1 -1.999879,1.99988 1.999999,1.9999993 0 0 1 -2.00039,-1.99988 1.999999,1.9999993 0 0 1 2.00039,-1.99988 z m 24.000086,0 a 1.999999,1.9999993 0 0 1 1.999878,1.99988 1.999999,1.9999993 0 0 1 -1.999878,1.99988 1.999999,1.9999993 0 0 1 -2.000394,-1.99988 1.999999,1.9999993 0 0 1 2.000394,-1.99988 z m 23.999569,0 a 1.999999,1.9999993 0 0 1 2.000395,1.99988 1.999999,1.9999993 0 0 1 -2.000395,1.99988 1.999999,1.9999993 0 0 1 -1.999878,-1.99988 1.999999,1.9999993 0 0 1 1.999878,-1.99988 z m 24.00008,0 a 1.999999,1.9999993 0 0 1 1.99988,1.99988 1.999999,1.9999993 0 0 1 -1.99988,1.99988 1.999999,1.9999993 0 0 1 -1.99988,-1.99988 1.999999,1.9999993 0 0 1 1.99988,-1.99988 z m 24.00009,0 a 1.999999,1.9999993 0 0 1 1.99987,1.99988 1.999999,1.9999993 0 0 1 -1.99987,1.99988 1.999999,1.9999993 0 0 1 -1.99988,-1.99988 1.999999,1.9999993 0 0 1 1.99988,-1.99988 z m 24.00008,0 a 1.999999,1.9999993 0 0 1 1.99988,1.99988 1.999999,1.9999993 0 0 1 -1.99988,1.99988 1.999999,1.9999993 0 0 1 -1.99988,-1.99988 1.999999,1.9999993 0 0 1 1.99988,-1.99988 z m 24.00009,0 a 1.999999,1.9999993 0 0 1 1.99987,1.99988 1.999999,1.9999993 0 0 1 -1.99987,1.99988 1.999999,1.9999993 0 0 1 -2.0004,-1.99988 1.999999,1.9999993 0 0 1 2.0004,-1.99988 z m 24.00008,0 a 1.999999,1.9999993 0 0 1 1.99988,1.99988 1.999999,1.9999993 0 0 1 -1.99988,1.99988 1.999999,1.9999993 0 0 1 -2.00039,-1.99988 1.999999,1.9999993 0 0 1 2.00039,-1.99988 z m 23.99957,0 a 1.999999,1.9999993 0 0 1 2.0004,1.99988 1.999999,1.9999993 0 0 1 -2.0004,1.99988 1.999999,1.9999993 0 0 1 -1.99988,-1.99988 1.999999,1.9999993 0 0 1 1.99988,-1.99988 z m 24.00009,0 a 1.999999,1.9999993 0 0 1 1.99987,1.99988 1.999999,1.9999993 0 0 1 -1.99987,1.99988 1.999999,1.9999993 0 0 1 -1.99988,-1.99988 1.999999,1.9999993 0 0 1 1.99988,-1.99988 z m 24.00008,0 a 1.999999,1.9999993 0 0 1 1.99988,1.99988 1.999999,1.9999993 0 0 1 -1.99988,1.99988 1.999999,1.9999993 0 0 1 -1.99987,-1.99988 1.999999,1.9999993 0 0 1 1.99987,-1.99988 z m 24.00009,0 a 1.999999,1.9999993 0 0 1 1.99988,1.99988 1.999999,1.9999993 0 0 1 -1.99988,1.99988 1.999999,1.9999993 0 0 1 -1.99987,-1.99988 1.999999,1.9999993 0 0 1 1.99987,-1.99988 z" />
    <text
       xml:space="preserve"
       style="font-style:normal;font-weight:normal;font-size:3.175px;line-height:1.25;font-family:sans-serif;fill:#000000;fill-opacity:1;stroke:none;stroke-width:0.264583"
       x="19.821903"
       y="172.41226"
       id="text1244"><tspan
         sodipodi:role="line"
         style="font-size:3.175px;stroke-width:0.264583"
         x="19.821903"
         y="172.41226"
         id="tspan1242">Fabric clamp (4mm thick!)</tspan></text>
  </g>
</svg>
