<?xml version="1.0" encoding="UTF-8" standalone="no"?>
<!-- Created with Inkscape (http://www.inkscape.org/) -->

<svg
   width="594mm"
   height="420mm"
   viewBox="0 0 594 420"
   version="1.1"
   id="svg5"
   inkscape:version="1.2.2 (b0a8486541, 2022-12-01)"
   sodipodi:docname="licker-75mm-stand.svg"
   xmlns:inkscape="http://www.inkscape.org/namespaces/inkscape"
   xmlns:sodipodi="http://sodipodi.sourceforge.net/DTD/sodipodi-0.dtd"
   xmlns="http://www.w3.org/2000/svg"
   xmlns:svg="http://www.w3.org/2000/svg">
  <sodipodi:namedview
     id="namedview7"
     pagecolor="#ffffff"
     bordercolor="#666666"
     borderopacity="1.0"
     inkscape:pageshadow="2"
     inkscape:pageopacity="0.0"
     inkscape:pagecheckerboard="0"
     inkscape:document-units="mm"
     showgrid="false"
     inkscape:zoom="1.3630746"
     inkscape:cx="396.53003"
     inkscape:cy="1329.3477"
     inkscape:window-width="1443"
     inkscape:window-height="925"
     inkscape:window-x="38"
     inkscape:window-y="27"
     inkscape:window-maximized="0"
     inkscape:current-layer="layer1"
     inkscape:showpageshadow="2"
     inkscape:deskcolor="#d1d1d1" />
  <defs
     id="defs2">
    <rect
       x="45.230719"
       y="1356.6273"
       width="298.14892"
       height="152.48577"
       id="rect47914" />
  </defs>
  <g
     inkscape:label="Layer 1"
     inkscape:groupmode="layer"
     id="layer1">
    <path
       id="rect846"
       style="fill:#800000;stroke:#00ff00;stroke-width:0"
       d="M 226.77148 113.38672 A 151.1811 151.1811 0 0 0 75.589844 264.56641 L 75.589844 491.33789 L 75.589844 642.51953 L 75.589844 869.29102 L 75.589844 944.88086 L 75.589844 1020.4707 L 377.95312 1020.4707 L 377.95312 424.99609 A 177.6378 177.6378 0 0 1 377.95117 424.99414 L 377.95117 264.56641 L 377.95312 264.56641 A 151.1811 151.1811 0 0 0 226.77148 113.38672 z M 226.77148 245.66992 A 18.897638 18.897638 0 0 1 245.66992 264.56641 A 18.897638 18.897638 0 0 1 226.77148 283.46484 A 18.897638 18.897638 0 0 1 207.87305 264.56641 A 18.897638 18.897638 0 0 1 226.77148 245.66992 z M 158.74023 257.00781 A 7.5590547 7.5590547 0 0 1 166.29883 264.56641 A 7.5590547 7.5590547 0 0 1 158.74023 272.12695 A 7.5590547 7.5590547 0 0 1 151.18164 264.56641 A 7.5590547 7.5590547 0 0 1 158.74023 257.00781 z M 294.80273 257.00781 A 7.5590547 7.5590547 0 0 1 302.36133 264.56641 A 7.5590547 7.5590547 0 0 1 294.80273 272.12695 A 7.5590547 7.5590547 0 0 1 287.24414 264.56641 A 7.5590547 7.5590547 0 0 1 294.80273 257.00781 z M 113.38672 491.33984 L 188.97656 491.33984 L 188.97656 514.01562 L 113.38672 514.01562 L 113.38672 491.33984 z M 264.56641 491.33984 L 340.1582 491.33984 L 340.1582 514.01562 L 264.56641 514.01562 L 264.56641 491.33984 z M 113.38477 771.02344 L 188.97461 771.02344 L 188.97461 793.70117 L 113.38477 793.70117 L 113.38477 771.02344 z M 264.56641 771.02344 L 340.15625 771.02344 L 340.15625 793.70117 L 264.56641 793.70117 L 264.56641 771.02344 z M 113.38477 839.05469 L 136.0625 839.05469 L 136.0625 914.64453 L 113.38477 914.64453 L 113.38477 839.05469 z M 317.48047 839.05469 L 340.1582 839.05469 L 340.1582 914.64453 L 317.48047 914.64453 L 317.48047 839.05469 z M 226.77148 865.51172 A 11.338583 11.338583 0 0 1 238.10938 876.84961 A 11.338583 11.338583 0 0 1 226.77148 888.1875 A 11.338583 11.338583 0 0 1 215.43164 876.84961 A 11.338583 11.338583 0 0 1 226.77148 865.51172 z M 113.38477 960 L 188.97461 960 L 188.97461 982.67773 L 113.38477 982.67773 L 113.38477 960 z M 264.56641 960 L 340.15625 960 L 340.15625 982.67773 L 264.56641 982.67773 L 264.56641 960 z "
       transform="scale(0.26458333)" />
    <path
       id="rect4649"
       style="fill:#800000;stroke:#00ff00;stroke-width:0"
       d="m 139.99982,110 v 9.99991 h -5.99963 v 19.99981 h 5.99963 v 20.00033 h -5.99963 v 19.99981 h 5.99963 v 10.00042 h 336.00015 v -10.00042 h 6.00015 v -19.99981 h -6.00015 v -20.00033 h 6.00015 v -19.99981 h -6.00015 V 110 Z M 298,119.99991 h 19.9998 v 6.00015 H 298 Z m 0,54.00032 h 19.9998 v 6.00015 H 298 Z" />
    <text
       xml:space="preserve"
       style="font-size:3.175px;line-height:1.25;font-family:sans-serif;stroke-width:0.264583"
       x="19.79071"
       y="22.412256"
       id="text13626"><tspan
         sodipodi:role="line"
         id="tspan13624"
         style="stroke-width:0.264583"
         x="19.79071"
         y="22.412256">Sidepanel (2x)</tspan></text>
    <text
       xml:space="preserve"
       style="font-style:normal;font-variant:normal;font-weight:normal;font-stretch:normal;font-size:4.93889px;line-height:1.25;font-family:sans-serif;-inkscape-font-specification:sans-serif;letter-spacing:0px;fill:#000000;fill-opacity:1;stroke:none;stroke-width:0.264583"
       x="19.767456"
       y="393.21634"
       id="text7311"><tspan
         sodipodi:role="line"
         style="font-style:normal;font-variant:normal;font-weight:bold;font-stretch:normal;font-size:4.23333px;font-family:sans-serif;-inkscape-font-specification:'sans-serif Bold';stroke-width:0.264583"
         x="19.767456"
         y="393.21634"
         id="tspan24361">Drum Carder</tspan><tspan
         sodipodi:role="line"
         style="font-style:normal;font-variant:normal;font-weight:normal;font-stretch:normal;font-size:3.175px;font-family:sans-serif;-inkscape-font-specification:sans-serif;stroke-width:0.264583"
         x="19.767456"
         y="399.38995"
         id="tspan42755">Stand for 75mm licker - 6mm plywood (birch or poplar) - 20230709</tspan></text>
    <text
       xml:space="preserve"
       style="font-size:3.175px;line-height:1.25;font-family:sans-serif;stroke-width:0.264583"
       x="139.68839"
       y="22.412256"
       id="text30790"><tspan
         sodipodi:role="line"
         id="tspan30788"
         style="stroke-width:0.264583"
         x="139.68839"
         y="22.412256">Front/back (2x)</tspan></text>
    <text
       xml:space="preserve"
       style="font-size:3.175px;line-height:1.25;font-family:sans-serif;stroke-width:0.264583"
       x="139.79071"
       y="102.41225"
       id="text36926"><tspan
         sodipodi:role="line"
         id="tspan36924"
         style="stroke-width:0.264583"
         x="139.79071"
         y="102.41225">Top/bottom (2x)</tspan></text>
    <text
       xml:space="preserve"
       transform="scale(0.26458333)"
       id="text47912"
       style="line-height:1.25;font-family:sans-serif;font-size:12px;white-space:pre;shape-inside:url(#rect47914)" />
    <path
       id="path13156"
       style="fill:#800000;stroke:#00ff00;stroke-width:0"
       d="m 134.00009,220 v 19.99981 h 5.99963 v 20.00034 h -5.99963 v 19.9998 h 5.99963 v 10.00043 h 336.00016 v -10.00043 h 6.00014 v -19.9998 h -6.00014 v -20.00034 h 6.00014 V 220 h -6.00014 -336.00016 z" />
    <text
       xml:space="preserve"
       style="font-size:3.175px;line-height:1.25;font-family:sans-serif;stroke-width:0.264583"
       x="140.00931"
       y="212.41226"
       id="text13471"><tspan
         sodipodi:role="line"
         id="tspan13469"
         style="stroke-width:0.264583"
         x="140.00931"
         y="212.41226">Feeder shelf (1x)</tspan></text>
    <g
       id="g2780"
       transform="translate(-95.999999,10)">
      <path
         id="path4607"
         style="fill:#800000;stroke:#00ff00;stroke-width:0"
         d="m 393.99981,20 v 5.999634 H 235.99963 V 37.999935 H 230 v 19.999812 h 5.99963 V 70.00005 h 158.00018 v 5.999632 h 19.9998 V 70.00005 H 571.99978 V 57.999747 h 6.00014 V 37.999935 h -6.00014 V 25.999634 H 413.99961 V 20 Z M 265.99988,37.999935 a 10,10 0 0 1 9.9999,9.999907 10,10 0 0 1 -9.9999,10.000422 10,10 0 0 1 -9.99992,-10.000422 10,10 0 0 1 9.99992,-9.999907 z m 275.99967,0 a 10,10 0 0 1 10.00043,9.999907 10,10 0 0 1 -10.00043,10.000422 10,10 0 0 1 -9.9999,-10.000422 10,10 0 0 1 9.9999,-9.999907 z" />
    </g>
  </g>
</svg>
