<?xml version="1.0" encoding="UTF-8" standalone="no"?>
<!-- Created with Inkscape (http://www.inkscape.org/) -->

<svg
   width="594mm"
   height="420mm"
   viewBox="0 0 594 420"
   version="1.1"
   id="svg5"
   inkscape:version="1.2.2 (b0a8486541, 2022-12-01)"
   sodipodi:docname="spacer-34mm.svg"
   xmlns:inkscape="http://www.inkscape.org/namespaces/inkscape"
   xmlns:sodipodi="http://sodipodi.sourceforge.net/DTD/sodipodi-0.dtd"
   xmlns="http://www.w3.org/2000/svg"
   xmlns:svg="http://www.w3.org/2000/svg">
  <sodipodi:namedview
     id="namedview7"
     pagecolor="#ffffff"
     bordercolor="#666666"
     borderopacity="1.0"
     inkscape:pageshadow="2"
     inkscape:pageopacity="0.0"
     inkscape:pagecheckerboard="0"
     inkscape:document-units="mm"
     showgrid="false"
     inkscape:zoom="0.48191965"
     inkscape:cx="942.06576"
     inkscape:cy="675.4238"
     inkscape:window-width="1920"
     inkscape:window-height="1016"
     inkscape:window-x="0"
     inkscape:window-y="0"
     inkscape:window-maximized="1"
     inkscape:current-layer="layer1"
     inkscape:showpageshadow="2"
     inkscape:deskcolor="#d1d1d1" />
  <defs
     id="defs2">
    <rect
       x="45.230719"
       y="1356.6273"
       width="298.14892"
       height="152.48577"
       id="rect47914" />
  </defs>
  <g
     inkscape:label="Layer 1"
     inkscape:groupmode="layer"
     id="layer1">
    <text
       xml:space="preserve"
       style="font-style:normal;font-variant:normal;font-weight:normal;font-stretch:normal;font-size:4.93889px;line-height:1.25;font-family:sans-serif;-inkscape-font-specification:sans-serif;letter-spacing:0px;fill:#000000;fill-opacity:1;stroke:none;stroke-width:0.264583"
       x="19.767456"
       y="393.21634"
       id="text7311"><tspan
         sodipodi:role="line"
         style="font-style:normal;font-variant:normal;font-weight:bold;font-stretch:normal;font-size:4.23333px;font-family:sans-serif;-inkscape-font-specification:'sans-serif Bold';stroke-width:0.264583"
         x="19.767456"
         y="393.21634"
         id="tspan24361">Drum Carder</tspan><tspan
         sodipodi:role="line"
         style="font-style:normal;font-variant:normal;font-weight:normal;font-stretch:normal;font-size:3.175px;font-family:sans-serif;-inkscape-font-specification:sans-serif;stroke-width:0.264583"
         x="19.767456"
         y="399.38995"
         id="tspan42755">Spacer 34mm - 6mm plywood (birch or poplar) - 20230607</tspan></text>
    <text
       xml:space="preserve"
       transform="scale(0.26458333)"
       id="text47912"
       style="line-height:1.25;font-family:sans-serif;font-size:12px;white-space:pre;shape-inside:url(#rect47914)" />
    <path
       id="path405"
       style="fill:#800000;stroke-width:0"
       d="M 84,20 V 54 H 431.99994 V 20 Z m 5.999634,6.99982 h 6.00015 v 4.60024 h 5.17e-4 v 10.79985 h -5.17e-4 v 4.60024 h -6.00015 z m 330.000006,0 h 6.00015 v 4.60024 h 5.2e-4 v 10.79985 h -5.2e-4 v 4.60024 h -6.00015 z m -171.99983,7.00009 h 19.99981 v 6.00015 h -19.99981 z"
       sodipodi:nodetypes="cccccccccccccccccccccccccccc" />
    <path
       id="path471"
       style="fill:#800000;stroke-width:0"
       d="m 248.00026,75 v 6.00015 H 96.000243 v 12.0003 h -6.000149 v 19.99981 h 6.000149 v 11.99979 H 248.00026 v 6.00015 h 19.99981 v -6.00015 h 152.00001 v -11.99979 h 6.00017 V 93.00045 h -6.00017 V 81.00015 H 268.00007 V 75 Z" />
    <path
       id="path475"
       style="fill:#800000;stroke-width:0"
       d="m 35.999935,75 v 6.00015 H 31.999663 20 v 43.9999 h 11.999663 4.000272 v 5.99963 h 5.800163 8.400004 5.800163 v -5.99963 H 60.000021 72 V 81.00015 H 60.000021 56.000265 V 75 h -5.800163 -8.400004 z m 7.00009,17.99942 h 6.00015 v 20.00033 h -6.00015 z"
       sodipodi:nodetypes="cccccccccccccccccccccccccc" />
    <path
       id="path512"
       style="fill:#800000;stroke-width:0"
       d="m 84,150 v 34 h 347.99994 v -34 z m 5.999634,6.99982 h 6.00015 v 4.60024 h 5.17e-4 v 10.79985 h -5.17e-4 v 4.60024 h -6.00015 z m 330.000006,0 h 6.00015 v 4.60024 h 5.2e-4 v 10.79985 h -5.2e-4 v 4.60024 h -6.00015 z m -171.99983,7.00009 h 19.99981 v 6.00015 h -19.99981 z"
       sodipodi:nodetypes="cccccccccccccccccccccccccccc" />
    <path
       id="path514"
       style="fill:#800000;stroke-width:0"
       d="m 459.99993,75 v 6.00015 H 455.99966 444 v 43.9999 h 11.99966 4.00027 v 5.99963 h 5.80017 8.4 5.80017 v -5.99963 H 484.00002 496 v -43.9999 h -11.99998 -3.99975 V 75 h -5.80017 -8.4 z m 7.00009,17.99942 h 6.00016 v 20.00033 h -6.00016 z"
       sodipodi:nodetypes="cccccccccccccccccccccccccc" />
  </g>
</svg>
